<?xml version="1.0" encoding="utf-8"?>
<!-- Generator: Adobe Illustrator 28.0.0, SVG Export Plug-In . SVG Version: 6.00 Build 0)  -->
<svg version="1.1" id="Layer_1" xmlns="http://www.w3.org/2000/svg" xmlns:xlink="http://www.w3.org/1999/xlink" x="0px" y="0px"
	 viewBox="0 0 240.1 179.1" style="enable-background:new 0 0 240.1 179.1;" xml:space="preserve">
<style type="text/css">
	.st0{fill:#FFFFFF;}
	.st1{fill:#FFE600;}
	.st2{fill:#FF00FF;}
	.st3{fill:#29AAFF;}
	.st4{fill:#FF4800;}
	.st5{fill:#FCEE21;}
	.st6{font-family:'bb-bookB-regular';}
	.st7{font-size:59.5988px;}
	.st8{letter-spacing:3;}
</style>
<g>
	<path class="st1" d="M219.2,73.3l3.1-1.3c7.8-3.2,7.5-14.4-0.4-17.2l-12-4.3c-4.7-1.7-7.2-6.7-5.7-11.4l3.1-9.9
		c2.3-7.3-4.7-14-11.9-11.4L177,24.3c-6.1,2.2-12.4-2.4-12.3-8.8l0-1.9c0.1-9.2-11.9-12.9-16.9-5.2l-7.3,11.3
		c-2.9,4.5-9,5.5-13.2,2.4l-7.4-5.5c-4.7-3.5-11.3-1.8-13.8,3.4l0,0c-3,6.4-11.9,7.1-15.9,1.3L83,11.2c-6.3-9.1-20.3-1.5-16.1,8.7
		l0,0C70,27.4,62.6,35,55,32l-9.6-3.8c-6.6-2.6-13.5,2.9-12.5,9.9l0.5,3.3c0.9,6.2-4.5,11.4-10.6,10.4l-10.5-1.7
		c-9.6-1.6-14.8,11-6.8,16.6l15.3,10.8c5,3.6,5.2,10.9,0.4,14.8l-4.4,3.5c-6.2,4.9-3.8,14.7,3.9,16.3l3.3,0.7
		c5.3,1.1,8.6,6.6,7,11.8l-1.2,3.9c-2.4,7.6,5.4,14.4,12.6,11.1l12.3-5.6c4.3-2,9.5-0.3,11.8,3.8l6.4,11.3c2.6,4.6,8.5,6,13,3.2
		l14.3-9.2c4.1-2.6,9.4-1.6,12.3,2.2l19.8,26.1c5,6.6,15.5,3.8,16.5-4.4l3.6-29.6c0.8-6.6,8.1-10.2,13.8-6.8l10.9,6.4
		c6.7,3.9,14.9-1.6,13.8-9.3l-0.2-1.7c-1-6.6,5.2-12,11.6-10.2l24.5,7c9.2,2.6,15.8-8.8,8.9-15.5l-19.4-18.7
		C211.5,83.8,213.1,75.8,219.2,73.3L219.2,73.3z M188.8,76.6l-2.1,0.9c-4.1,1.7-5.1,7-1.9,10.1l13,12.5c4.6,4.4,0.2,12.1-5.9,10.3
		l-16.4-4.7c-4.3-1.2-8.4,2.4-7.8,6.8l0.2,1.1c0.8,5.1-4.8,8.8-9.2,6.2l-7.2-4.3c-3.8-2.3-8.7,0.1-9.2,4.5l-2.4,19.7
		c-0.7,5.5-7.7,7.4-11,3l-13.2-17.4c-1.9-2.6-5.5-3.2-8.2-1.5l-9.5,6.1c-3,1.9-6.9,0.9-8.7-2.1l-4.3-7.5c-1.6-2.8-5-3.9-7.9-2.5
		l-8.2,3.8c-4.8,2.2-10-2.3-8.4-7.4l0.8-2.6c1.1-3.5-1.1-7.1-4.6-7.8l-2.2-0.4c-5.1-1-6.7-7.6-2.6-10.8l2.9-2.3
		c3.2-2.5,3.1-7.5-0.3-9.8L44.1,73c-5.3-3.8-1.9-12.1,4.5-11.1l7,1.2c4.1,0.7,7.7-2.8,7.1-7L62.5,54c-0.7-4.7,3.9-8.3,8.3-6.6
		l6.4,2.5c5,2,10-3,7.9-8l0,0C82.4,35.1,91.7,30,95.9,36l4.7,6.8c2.7,3.9,8.6,3.4,10.6-0.9v0c1.7-3.5,6.1-4.6,9.2-2.3l4.9,3.7
		c2.9,2.1,6.9,1.4,8.8-1.6l4.9-7.5c3.4-5.2,11.4-2.7,11.3,3.4l0,1.2c-0.1,4.3,4.2,7.3,8.2,5.9l12.3-4.4c4.8-1.7,9.4,2.8,7.9,7.6
		l-2.1,6.6c-1,3.2,0.7,6.5,3.8,7.6l8,2.9C193.8,67,194,74.4,188.8,76.6L188.8,76.6z"/>
	<path class="st4" d="M166.2,72l-5.3-1.9c-2.1-0.7-3.2-3-2.5-5.1l1.4-4.4c1-3.2-2.1-6.2-5.3-5.1l-8.2,2.9c-2.7,1-5.5-1.1-5.5-3.9
		v-0.8c0.1-4.1-5.3-5.7-7.5-2.3l-3.2,5c-1.3,2-4,2.5-5.9,1.1l-3.3-2.4c-2.1-1.5-5-0.8-6.1,1.5l0,0c-1.3,2.9-5.3,3.2-7.1,0.6
		l-3.1-4.5c-2.8-4-9-0.7-7.2,3.9l0,0c1.4,3.3-1.9,6.7-5.3,5.4l-4.3-1.7c-2.9-1.2-6,1.3-5.6,4.4l0.2,1.5c0.4,2.7-2,5.1-4.7,4.6
		L73,69.9c-4.3-0.7-6.6,4.9-3,7.4l6.8,4.8c2.2,1.6,2.3,4.9,0.2,6.6L75,90.2c-2.7,2.2-1.7,6.5,1.7,7.2l1.5,0.3
		c2.4,0.5,3.8,2.9,3.1,5.2l-0.5,1.7c-1.1,3.4,2.4,6.4,5.6,4.9l5.5-2.5c1.9-0.9,4.2-0.2,5.3,1.7l2.8,5c1.2,2,3.8,2.7,5.8,1.4l6.4-4.1
		c1.8-1.2,4.2-0.7,5.5,1l8.8,11.6c2.2,2.9,6.9,1.7,7.3-2l1.6-13.1c0.4-2.9,3.6-4.5,6.1-3l4.8,2.9c3,1.8,6.6-0.7,6.1-4.1l-0.1-0.7
		c-0.4-2.9,2.3-5.3,5.2-4.5l10.9,3.1c4.1,1.2,7-3.9,4-6.9l-8.6-8.3c-2.1-2.1-1.4-5.6,1.3-6.7l1.4-0.6
		C169.9,78.2,169.7,73.2,166.2,72L166.2,72z"/>
	<path class="st3" d="M186.7,77.4l2.1-0.9c5.2-2.1,5-9.6-0.3-11.5l-8-2.9c-3.1-1.1-4.8-4.5-3.8-7.6l2.1-6.6c1.5-4.8-3.1-9.3-7.9-7.6
		l-12.3,4.4c-4,1.4-8.3-1.6-8.2-5.9l0-1.2c0.1-6.2-7.9-8.6-11.3-3.4l-4.9,7.5c-1.9,3-6,3.7-8.8,1.6l-4.9-3.7
		c-3.1-2.3-7.6-1.2-9.2,2.3v0c-2,4.3-7.9,4.8-10.6,0.9L95.9,36c-4.2-6-13.5-1-10.7,5.8l0,0c2.1,5-2.9,10-7.9,8l-6.4-2.5
		c-4.4-1.7-9,1.9-8.3,6.6l0.3,2.2c0.6,4.1-3,7.6-7.1,7l-7-1.2c-6.4-1.1-9.9,7.3-4.5,11.1l10.2,7.2c3.4,2.4,3.5,7.3,0.3,9.8l-2.9,2.3
		c-4.1,3.2-2.5,9.8,2.6,10.8l2.2,0.4c3.6,0.7,5.7,4.4,4.6,7.8l-0.8,2.6c-1.6,5.1,3.6,9.6,8.4,7.4l8.2-3.8c2.9-1.3,6.3-0.2,7.9,2.5
		l4.3,7.5c1.7,3.1,5.7,4,8.7,2.1l9.5-6.1c2.7-1.7,6.3-1.1,8.2,1.5l13.2,17.4c3.3,4.4,10.3,2.5,11-3l2.4-19.7
		c0.5-4.4,5.4-6.8,9.2-4.5l7.2,4.3c4.4,2.6,10-1.1,9.2-6.2l-0.2-1.1c-0.6-4.4,3.5-8,7.8-6.8l16.4,4.7c6.1,1.8,10.6-5.9,5.9-10.3
		l-13-12.5C181.5,84.5,182.6,79.1,186.7,77.4L186.7,77.4z M166.4,79.6l-1.4,0.6c-2.7,1.1-3.4,4.7-1.3,6.7l8.6,8.3
		c3.1,3,0.1,8.1-4,6.9L157.5,99c-2.9-0.8-5.6,1.6-5.2,4.5l0.1,0.7c0.5,3.4-3.2,5.9-6.1,4.1l-4.8-2.9c-2.5-1.5-5.8,0.1-6.1,3
		l-1.6,13.1c-0.4,3.6-5.1,4.9-7.3,2l-8.8-11.6c-1.3-1.7-3.7-2.1-5.5-1l-6.4,4.1c-2,1.3-4.6,0.6-5.8-1.4l-2.8-5
		c-1.1-1.8-3.3-2.6-5.3-1.7l-5.5,2.5c-3.2,1.5-6.7-1.6-5.6-4.9l0.5-1.7c0.7-2.3-0.7-4.8-3.1-5.2l-1.5-0.3c-3.4-0.7-4.5-5.1-1.7-7.2
		l1.9-1.5c2.2-1.7,2.1-5-0.2-6.6L70,77.3c-3.6-2.5-1.3-8.1,3-7.4l4.7,0.8c2.7,0.4,5.1-1.9,4.7-4.6l-0.2-1.5
		c-0.5-3.1,2.6-5.6,5.6-4.4l4.3,1.7c3.4,1.3,6.7-2,5.3-5.4l0,0c-1.9-4.5,4.4-7.9,7.2-3.9l3.1,4.5c1.8,2.6,5.7,2.3,7.1-0.6l0,0
		c1.1-2.3,4.1-3.1,6.1-1.5l3.3,2.4c1.9,1.4,4.6,0.9,5.9-1.1l3.2-5c2.2-3.5,7.6-1.8,7.5,2.3v0.8c-0.1,2.9,2.8,4.9,5.5,3.9l8.2-2.9
		c3.2-1.1,6.3,1.8,5.3,5.1l-1.4,4.4c-0.7,2.1,0.5,4.3,2.5,5.1l5.3,1.9C169.7,73.2,169.8,78.2,166.4,79.6L166.4,79.6z"/>
	<text transform="matrix(0.9999 1.514993e-02 -1.514993e-02 0.9999 41.5171 108.3679)" class="st6 st7 st8">COOL</text>
</g>
</svg>
