<?xml version="1.0" encoding="utf-8"?>
<!-- Generator: Adobe Illustrator 28.0.0, SVG Export Plug-In . SVG Version: 6.00 Build 0)  -->
<svg version="1.1" id="Layer_1" xmlns="http://www.w3.org/2000/svg" xmlns:xlink="http://www.w3.org/1999/xlink" x="0px" y="0px"
	 viewBox="0 0 240.1 179.1" style="enable-background:new 0 0 240.1 179.1;" xml:space="preserve">
<style type="text/css">
	.st0{fill:#FFFFFF;}
	.st1{fill:#FFE600;}
	.st2{fill:#FF00FF;}
	.st3{fill:#29AAFF;}
	.st4{fill:#FF4800;}
	.st5{fill:#FCEE21;}
	.st6{font-family:'bb-bookB-regular';}
	.st7{font-size:41.3511px;}
	.st8{letter-spacing:3;}
</style>
<g>
	<path class="st3" d="M33.6,67.5c5.2,3,5.7,10.7,1,14.6L15.6,97.9c-6.8,5.6-2.1,17.1,6.3,15.5l22.4-4.3c5.9-1.1,10.8,4.6,9.3,10.7
		l-0.4,1.6c-1.8,7.1,5,13.1,11.3,10l10.2-5.1c5.4-2.7,11.5,1.4,11.6,7.7l0.3,28.3c0.1,7.9,9.1,11.5,14.1,5.7l20.1-22.8
		c3-3.3,7.8-3.7,11.1-0.9l11.8,10c3.6,3.1,9,2.3,11.8-1.8l6.8-10c2.5-3.7,7.2-4.8,10.9-2.5l10.3,6.5c6.1,3.8,13.6-1.9,12.3-9.3
		l-0.7-3.8c-0.9-5.1,2.5-9.9,7.3-10.5l3-0.3c7-0.8,10-9.8,5-15l-3.5-3.7c-3.9-4-3-11,1.8-13.9l14.6-8.8c7.6-4.6,4.3-16.9-4.4-16.3
		l-9.5,0.7c-5.6,0.4-9.8-5.1-8.4-10.8l0.8-3.1c1.6-6.5-4-12.4-10.1-10.5l-8.9,2.7c-7,2.1-12.8-5.7-9.3-12.5l0,0
		c4.7-9.2-6.9-17.7-13.4-9.7l-7.3,9c-4.1,5.1-11.9,3.6-13.9-2.7l0,0c-1.7-5.2-7.4-7.4-11.9-4.5l-7.1,4.5c-4.1,2.6-9.3,1-11.5-3.5
		l-5.4-11.3c-3.7-7.8-14.7-5.5-15.5,3.3L87.6,18c-0.6,6.1-6.6,9.8-11.8,7.2l-15.7-7.9c-6.1-3.1-12.9,2.6-11.7,9.7l1.8,9.7
		c0.8,4.6-1.9,9.1-6.2,10.3l-11.1,2.9C25.7,51.7,24.4,62.3,31,66L33.6,67.5L33.6,67.5z M60.3,73.4c-4.4-2.5-3.5-9.5,1.4-10.8l7.4-2
		c2.9-0.8,4.7-3.8,4.1-6.8L72,47.4c-0.9-4.7,3.7-8.5,7.8-6.5l10.4,5.3c3.4,1.7,7.5-0.7,7.9-4.8l0.1-1.2c0.5-5.8,7.9-7.4,10.3-2.2
		l3.6,7.6c1.4,3,4.9,4.1,7.6,2.3l4.7-3c3-1.9,6.8-0.4,7.9,3l0,0c1.4,4.2,6.5,5.2,9.3,1.8l4.8-6c4.3-5.3,12.1,0.3,8.9,6.5l0,0
		c-2.3,4.5,1.6,9.7,6.2,8.3l5.9-1.8c4.1-1.2,7.8,2.7,6.7,7l-0.5,2.1c-0.9,3.8,1.9,7.5,5.6,7.2l6.3-0.4c5.8-0.4,8,7.8,2.9,10.9
		l-9.8,5.9c-3.2,1.9-3.8,6.6-1.2,9.3l2.4,2.5c3.3,3.4,1.3,9.5-3.4,10l-2,0.2c-3.2,0.4-5.5,3.6-4.9,7l0.5,2.5
		c0.9,4.9-4.1,8.8-8.2,6.2l-6.9-4.3c-2.4-1.5-5.6-0.8-7.2,1.7l-4.5,6.7c-1.9,2.7-5.4,3.3-7.9,1.2l-7.8-6.7c-2.2-1.9-5.4-1.6-7.4,0.6
		l-13.4,15.2c-3.4,3.8-9.4,1.4-9.4-3.8l-0.2-18.9c0-4.2-4.1-6.9-7.7-5.1l-6.8,3.4c-4.2,2.1-8.7-1.9-7.5-6.7l0.3-1
		c1-4.1-2.3-7.9-6.2-7.1l-14.9,2.9c-5.6,1.1-8.8-6.6-4.2-10.3l12.7-10.6c3.1-2.6,2.8-7.8-0.7-9.7L60.3,73.4L60.3,73.4z"/>
	<path d="M80.7,71.2c-3.2,0.9-3.8,5.5-0.9,7.2l1.2,0.7c2.3,1.3,2.6,4.7,0.5,6.5l-8.5,7c-3,2.5-0.9,7.6,2.8,6.9l10-1.9
		c2.6-0.5,4.8,2,4.1,4.8l-0.2,0.7c-0.8,3.2,2.2,5.9,5,4.5l4.6-2.3c2.4-1.2,5.1,0.6,5.1,3.4l0.1,12.6c0,3.5,4,5.1,6.3,2.5l8.9-10.1
		c1.3-1.5,3.5-1.7,4.9-0.4l5.2,4.4c1.6,1.4,4,1,5.2-0.8l3-4.5c1.1-1.6,3.2-2.1,4.8-1.1l4.6,2.9c2.7,1.7,6-0.9,5.5-4.1l-0.3-1.7
		c-0.4-2.3,1.1-4.4,3.3-4.7l1.3-0.1c3.1-0.3,4.4-4.4,2.2-6.7l-1.6-1.6c-1.7-1.8-1.3-4.9,0.8-6.2l6.5-3.9c3.4-2,1.9-7.5-1.9-7.3
		l-4.2,0.3c-2.5,0.2-4.3-2.3-3.7-4.8l0.3-1.4c0.7-2.9-1.8-5.5-4.5-4.7l-3.9,1.2c-3.1,0.9-5.7-2.5-4.2-5.6l0,0c2.1-4.1-3.1-7.9-6-4.3
		l-3.2,4c-1.8,2.3-5.3,1.6-6.2-1.2l0,0c-0.7-2.3-3.3-3.3-5.3-2l-3.1,2c-1.8,1.2-4.2,0.4-5.1-1.5l-2.4-5c-1.6-3.5-6.5-2.4-6.9,1.5
		l-0.1,0.8c-0.2,2.7-2.9,4.4-5.2,3.2l-7-3.5C90,55.4,87,57.9,87.6,61l0.8,4.3c0.4,2-0.8,4.1-2.7,4.6L80.7,71.2L80.7,71.2z"/>
	<path class="st4" d="M62,74.5c3.5,2,3.8,7.1,0.7,9.7L50,94.8c-4.5,3.8-1.4,11.4,4.2,10.3l14.9-2.9c3.9-0.8,7.2,3,6.2,7.1l-0.3,1
		c-1.2,4.8,3.3,8.8,7.5,6.7l6.8-3.4c3.6-1.8,7.7,0.9,7.7,5.1l0.2,18.9c0.1,5.2,6,7.7,9.4,3.8l13.4-15.2c2-2.2,5.2-2.5,7.4-0.6
		l7.8,6.7c2.4,2.1,6,1.5,7.9-1.2l4.5-6.7c1.7-2.5,4.8-3.2,7.2-1.7l6.9,4.3c4.1,2.5,9.1-1.3,8.2-6.2l-0.5-2.5c-0.6-3.4,1.7-6.6,4.9-7
		l2-0.2c4.6-0.5,6.7-6.6,3.4-10l-2.4-2.5c-2.6-2.7-2-7.3,1.2-9.3l9.8-5.9c5.1-3.1,2.9-11.3-2.9-10.9l-6.3,0.4
		c-3.7,0.3-6.5-3.4-5.6-7.2l0.5-2.1c1.1-4.3-2.7-8.2-6.7-7l-5.9,1.8c-4.6,1.4-8.6-3.8-6.2-8.3l0,0c3.1-6.2-4.6-11.8-8.9-6.5l-4.8,6
		c-2.8,3.4-7.9,2.4-9.3-1.8l0,0c-1.1-3.5-4.9-4.9-7.9-3l-4.7,3c-2.7,1.7-6.2,0.7-7.6-2.3l-3.6-7.6c-2.5-5.2-9.8-3.6-10.3,2.2
		L98,41.4c-0.4,4.1-4.4,6.5-7.9,4.8l-10.4-5.3c-4.1-2.1-8.6,1.7-7.8,6.5l1.2,6.4c0.6,3.1-1.3,6.1-4.1,6.8l-7.4,2
		c-4.9,1.3-5.8,8.3-1.4,10.8L62,74.5L62,74.5z M79.8,78.4c-2.9-1.7-2.3-6.3,0.9-7.2l4.9-1.3c1.9-0.5,3.1-2.5,2.7-4.6L87.6,61
		c-0.6-3.1,2.5-5.7,5.2-4.3l7,3.5c2.3,1.2,5-0.5,5.2-3.2l0.1-0.8c0.4-3.9,5.3-4.9,6.9-1.5l2.4,5c0.9,2,3.3,2.7,5.1,1.5l3.1-2
		c2-1.3,4.5-0.3,5.3,2l0,0c0.9,2.8,4.4,3.5,6.2,1.2l3.2-4c2.9-3.5,8,0.2,6,4.3l0,0c-1.5,3,1.1,6.5,4.2,5.6l3.9-1.2
		c2.7-0.8,5.2,1.8,4.5,4.7l-0.3,1.4c-0.6,2.6,1.2,5,3.7,4.8l4.2-0.3c3.9-0.3,5.3,5.2,1.9,7.3l-6.5,3.9c-2.1,1.3-2.5,4.4-0.8,6.2
		l1.6,1.6c2.2,2.3,0.9,6.3-2.2,6.7l-1.3,0.1c-2.1,0.2-3.7,2.4-3.3,4.7l0.3,1.7c0.6,3.3-2.8,5.8-5.5,4.1l-4.6-2.9
		c-1.6-1-3.7-0.5-4.8,1.1l-3,4.5c-1.2,1.8-3.6,2.2-5.2,0.8l-5.2-4.4c-1.5-1.3-3.6-1.1-4.9,0.4l-8.9,10.1c-2.3,2.6-6.3,0.9-6.3-2.5
		l-0.1-12.6c0-2.8-2.7-4.6-5.1-3.4l-4.6,2.3c-2.8,1.4-5.8-1.3-5-4.5l0.2-0.7c0.7-2.7-1.5-5.3-4.1-4.8l-10,1.9
		c-3.7,0.7-5.8-4.4-2.8-6.9l8.5-7c2.1-1.7,1.8-5.2-0.5-6.5L79.8,78.4L79.8,78.4z"/>
	<text transform="matrix(0.9657 0.2595 -0.2595 0.9657 61.4615 90.7506)" class="st0 st6 st7 st8">sick!</text>
</g>
</svg>
