<?xml version="1.0" encoding="utf-8"?>
<!-- Generator: Adobe Illustrator 28.0.0, SVG Export Plug-In . SVG Version: 6.00 Build 0)  -->
<svg version="1.1" id="Layer_1" xmlns="http://www.w3.org/2000/svg" xmlns:xlink="http://www.w3.org/1999/xlink" x="0px" y="0px"
	 viewBox="0 0 254.9 190.7" style="enable-background:new 0 0 254.9 190.7;" xml:space="preserve">
<style type="text/css">
	.st0{fill:#FFFFFF;}
	.st1{fill:#FF00FF;}
	.st2{fill:#29AAFF;}
	.st3{fill:#FCEE21;}
	.st4{fill:#FF4800;}
</style>
<path class="st2" d="M175.6,156.1l-8.2,10.7c-3.3,4.4-9.6,5-13.8,1.5l-13.5-11.4c-3.8-3.2-9.5-3-13,0.6l-24,24.1
	c-6.1,6.1-16.5,1.7-16.4-6.9l0.3-31c0.1-6.9-7-11.6-13.3-8.9l-12.1,5.1c-7.4,3.1-15.2-3.7-12.9-11.5l0.5-1.7
	c1.9-6.7-3.7-13.1-10.6-12.1l-26.2,3.8c-9.9,1.4-15.1-11.3-7-17.2L28,84.7c5.6-4.1,5.1-12.6-0.9-16l-3.1-1.8
	c-7.6-4.4-5.8-15.8,2.8-17.7l13-2.8c5-1.1,8.3-5.9,7.4-11l-1.8-10.6c-1.3-7.8,6.8-13.8,13.8-10.1l18.1,9.3
	c5.9,3.1,13.1-0.7,13.9-7.4l0.2-1.9c1.1-9.5,14.1-11.7,18.2-3l6,12.6c2.4,5,8.5,7,13.3,4.3l8.4-4.6c5.3-2.9,11.9-0.3,13.8,5.5l0,0
	c2.2,7,11.2,9,16.2,3.5l8.7-9.5c7.7-8.5,21.1,1.3,15.4,11.2l0,0c-4.2,7.3,2.4,16.1,10.6,14.1l10.4-2.6c7.1-1.8,13.5,4.9,11.5,11.9
	l-1,3.4c-1.8,6.2,3,12.4,9.5,12.2l11.1-0.3c10.2-0.3,13.7,13.4,4.7,18.1l-17.3,9c-5.7,3-6.9,10.5-2.5,15.1l4,4.2
	c5.7,5.9,1.9,15.7-6.2,16.2l-3.5,0.2c-5.7,0.4-9.8,5.6-8.8,11.2l0.7,4.1c1.4,8.2-7.5,14.1-14.6,9.7l-11.9-7.5
	C184.1,151.1,178.6,152.1,175.6,156.1z"/>
<g>
	<g>
		<path d="M50.2,81.8l0.8,0l0.1,10.7c0.8-1.6,2-3,3.6-4c1.6-1,3.3-1.5,5.4-1.5c1.8,0,3.4,0.4,4.8,1.1c1.4,0.8,2.5,1.8,3.3,3.1
			c0.8,1.3,1.2,2.8,1.2,4.4l0,2.1c0,1.6-0.4,3.1-1.2,4.4c-0.8,1.3-1.9,2.4-3.3,3.2c-1.4,0.8-3,1.2-4.8,1.2c-2,0-3.8-0.5-5.4-1.4
			c-1.6-1-2.8-2.3-3.7-3.9l0,5.4l-0.8,0L50.2,81.8z M65.8,101c1-0.4,1.7-0.9,2.1-1.6c0.5-0.7,0.7-1.5,0.7-2.3l0-0.9
			c0-0.8-0.2-1.6-0.7-2.3c-0.5-0.7-1.2-1.2-2.2-1.6c-1-0.4-2.2-0.5-3.7-0.5l-4.5,0c-1.5,0-2.7,0.2-3.7,0.6c-1,0.4-1.7,0.9-2.1,1.6
			c-0.5,0.7-0.7,1.4-0.7,2.3l0,0.9c0,0.9,0.2,1.6,0.7,2.3c0.5,0.7,1.2,1.2,2.2,1.6c1,0.4,2.2,0.5,3.7,0.5l4.5,0
			C63.7,101.6,64.9,101.4,65.8,101z"/>
		<path d="M75.7,105.2c-1.5-0.8-2.6-1.8-3.5-3.1c-0.8-1.3-1.3-2.8-1.3-4.4l0-2.1c0-1.6,0.4-3.1,1.2-4.4c0.8-1.3,2-2.4,3.4-3.2
			c1.4-0.8,3.1-1.2,4.9-1.2c1.9,0,3.6,0.4,5,1.2c1.4,0.8,2.5,1.8,3.3,3.2c0.8,1.3,1.2,2.7,1.2,4.2l0,2.7l-18.4,0.2l0-3.2l17.5-0.1
			l0,0c-0.1-0.8-0.5-1.5-1-2.1c-0.5-0.6-1.3-1-2.4-1.4c-1.1-0.3-2.4-0.5-4-0.5l-2.5,0c-1.8,0-3.2,0.2-4.3,0.6s-1.9,1-2.4,1.8
			c-0.5,0.8-0.7,1.7-0.7,2.7l0,1.5c0,1.1,0.3,2,0.8,2.7c0.5,0.8,1.3,1.3,2.4,1.7c1.1,0.4,2.5,0.6,4.3,0.6l3.7,0
			c1.8,0,3.2-0.3,4.1-0.8c0.9-0.5,1.6-1.3,1.9-2.2l0.8,0v0c-0.3,1.2-0.8,2.3-1.6,3.4c-0.8,1.1-1.8,1.9-3.1,2.6c-1.3,0.7-2.8,1-4.5,1
			C78.8,106.4,77.2,106,75.7,105.2z"/>
		<path d="M95.8,105.4c-1.3-0.5-2.3-1.2-3-2.1c-0.7-0.9-1-1.9-1-3l0-0.3c0-1.5,0.6-2.8,1.8-3.8c1.2-1,3.3-1.6,6.2-1.8l10.2-0.7
			l0,3.2l-11.6,0.7c-1.7,0.1-2.9,0.3-3.8,0.5c-0.9,0.2-1.4,0.5-1.7,0.8c-0.3,0.3-0.4,0.7-0.4,1.1v0.1c0,0.4,0.1,0.8,0.4,1
			s0.8,0.5,1.6,0.7c0.8,0.2,1.9,0.3,3.2,0.3l5.1,0c1.7,0,3.1-0.2,4.1-0.6s1.7-0.9,2.1-1.6c0.4-0.7,0.6-1.5,0.6-2.5l0-2.3
			c0-0.9-0.2-1.7-0.7-2.4c-0.4-0.7-1.1-1.2-2.1-1.6c-1-0.4-2.3-0.6-3.9-0.6l-4,0c-1.3,0-2.4,0.1-3.2,0.4c-0.8,0.3-1.4,0.6-1.9,1.1
			s-0.8,1-1,1.6l-0.8,0c0.3-1.4,0.9-2.5,1.7-3.6c0.8-1,1.8-1.9,3.1-2.5c1.3-0.6,2.7-1,4.4-1c2.1,0,3.8,0.4,5.1,1.2
			c1.4,0.8,2.4,1.8,3,3.1c0.6,1.3,1,2.6,1,4l0.1,11.1l-0.8,0l0-5.1c-0.7,1.5-1.9,2.8-3.4,3.7c-1.5,0.9-3.4,1.4-5.7,1.4
			C98.8,106.2,97.1,105.9,95.8,105.4z"/>
		<path d="M130.7,105.9l-0.8,0l0-5.1c-0.8,1.5-1.9,2.8-3.4,3.7c-1.5,0.9-3.3,1.4-5.2,1.4c-1.8,0-3.4-0.3-4.7-1.1
			c-1.3-0.7-2.4-1.7-3.1-2.9c-0.7-1.2-1.1-2.6-1.1-4.1l-0.1-11.3l0.8,0l0.1,9.5c0,1,0.2,1.9,0.7,2.6c0.4,0.7,1.1,1.3,2.1,1.7
			c0.9,0.4,2.2,0.6,3.6,0.6l4.1,0c1.5,0,2.7-0.2,3.7-0.6c0.9-0.4,1.6-1,2-1.7c0.4-0.7,0.6-1.6,0.6-2.6l-0.1-9.5l0.8,0L130.7,105.9z"
			/>
		<path d="M131.7,88.3l18.2-0.2l0,4.9l-18.2,0.2L131.7,88.3z M140.4,81l0.8,0l0.2,24.8l-0.8,0L140.4,81z"/>
		<path d="M150.8,80.9l1.1,0l0,4.3l-1.1,0L150.8,80.9z M151.1,86.2l0.8,0l0.2,19.5l-0.8,0L151.1,86.2z"/>
		<path d="M153,88.2l18-0.2l0,4.9l-18,0.2L153,88.2z M162.5,82c0.6-0.8,1.5-1.2,2.6-1.2l6.4-0.1l0,3.4l-7.5,0.1
			c-0.7,0-1.1,0.2-1.4,0.5c-0.3,0.3-0.4,0.7-0.4,1.3l0.2,19.6l-0.8,0l-0.2-20.4C161.6,83.9,161.9,82.8,162.5,82z"/>
		<path d="M191,105.4l-0.8,0l0-5.1c-0.8,1.5-1.9,2.8-3.4,3.7c-1.5,0.9-3.3,1.4-5.2,1.4c-1.8,0-3.4-0.3-4.7-1.1
			c-1.3-0.7-2.4-1.7-3.1-2.9c-0.7-1.2-1.1-2.6-1.1-4.1L172.6,86l0.8,0l0.1,9.5c0,1,0.2,1.9,0.7,2.6c0.4,0.7,1.1,1.3,2.1,1.7
			c0.9,0.4,2.2,0.6,3.6,0.6l4.1,0c1.5,0,2.7-0.2,3.7-0.6c0.9-0.4,1.6-1,2-1.7c0.4-0.7,0.6-1.6,0.6-2.6l-0.1-9.5l0.8,0L191,105.4z"/>
		<path d="M192.7,80.6l0.8,0l0.2,24.8l-0.8,0L192.7,80.6z"/>
		<path d="M196.1,99.9l7.3-0.1l0,5.5l-7.3,0.1L196.1,99.9z M196.9,80.5l5.5,0l-2.2,16.8l-0.8,0L196.9,80.5z"/>
	</g>
</g>
</svg>
