<?xml version="1.0" encoding="utf-8"?>
<!-- Generator: Adobe Illustrator 28.0.0, SVG Export Plug-In . SVG Version: 6.00 Build 0)  -->
<svg version="1.1" id="Layer_1" xmlns="http://www.w3.org/2000/svg" xmlns:xlink="http://www.w3.org/1999/xlink" x="0px" y="0px"
	 viewBox="0 0 254.9 190.7" style="enable-background:new 0 0 254.9 190.7;" xml:space="preserve">
<style type="text/css">
	.st0{fill:#FFFFFF;}
	.st1{fill:#FF00FF;}
	.st2{fill:#29AAFF;}
	.st3{fill:#FCEE21;}
	.st4{fill:#FF4800;}
</style>
<g>
	<path d="M197.5,124.2l-2,12.8c-0.8,5.2-5.8,8.7-11,7.6l-16.6-3.5c-4.7-1-9.4,1.8-10.7,6.4l-9.2,31.4c-2.3,7.9-13.1,9-17,1.7
		L117,154.5c-3.1-5.9-11.2-6.6-15.4-1.4l-7.8,9.9c-4.8,6.1-14.5,3.8-16.2-3.7l-0.4-1.6c-1.5-6.5-9.2-9.4-14.5-5.4l-20.4,15.3
		c-7.7,5.7-17.9-2.6-13.8-11.3L40,131.8c2.8-6-1.4-13-8.1-13.1l-3.4-0.1c-8.4-0.2-12.2-10.7-5.7-16.2l9.7-8.3
		c3.8-3.2,4.3-8.8,1.2-12.7l-6.4-8.1c-4.7-6-0.6-14.8,7-14.9l19.6-0.4c6.4-0.1,10.7-6.7,8.4-12.6l-0.7-1.7
		c-3.4-8.6,6.5-16.3,14-10.9l10.9,7.9c4.3,3.1,10.4,2,13.2-2.5l4.9-7.8c3.1-4.9,9.9-5.7,14.1-1.7l0,0c5.1,4.9,13.6,2.4,15.3-4.5
		l3-12.1c2.6-10.7,18.4-8.6,18.2,2.4l0,0c-0.2,8.1,9.4,12.5,15.4,7l7.6-7c5.2-4.8,13.7-2.1,15.2,4.8l0.7,3.3c1.4,6.1,8.2,9.1,13.6,6
		l9.2-5.4c8.4-4.9,17.7,5,12.3,13.1l-10.4,15.6c-3.4,5.1-1,12.1,4.9,13.9l5.3,1.7c7.5,2.3,8.8,12.4,2.2,16.6l-2.9,1.8
		c-4.6,2.9-5.7,9.2-2.3,13.5l2.5,3.2c4.9,6.3,0.1,15.4-7.8,14.9l-13.5-0.9C202.4,116.1,198.2,119.5,197.5,124.2z"/>
	<g>
		<g>
			<path class="st0" d="M59.6,116.7l0.8-0.4l11.3,20.3l19-10.5l3,5.4l-19.8,11L59.6,116.7z"/>
			<path class="st0" d="M99.5,126.3c-2.2,0-4.3-0.6-6.2-1.8c-1.9-1.2-3.4-2.8-4.5-4.9l-2-3.6c-1.2-2.1-1.7-4.2-1.7-6.4
				c0-2.2,0.6-4.3,1.8-6.2c1.2-1.9,2.9-3.5,5-4.7c2.2-1.2,4.4-1.8,6.6-1.8c2.2,0,4.3,0.6,6.1,1.8c1.9,1.2,3.4,2.8,4.5,4.9l2,3.6
				c1.2,2.1,1.7,4.2,1.7,6.4c0,2.2-0.6,4.3-1.7,6.2c-1.2,1.9-2.8,3.5-5,4.7C104,125.7,101.7,126.3,99.5,126.3z M109.3,114.4
				c1-1.3,1.5-2.5,1.5-3.8c0.1-1.3-0.2-2.6-1-3.8l-1-1.8c-0.7-1.2-1.6-2.2-2.7-2.8c-1.1-0.6-2.5-0.9-4.1-0.7
				c-1.6,0.1-3.4,0.8-5.4,1.9l-3.5,1.9c-2,1.1-3.5,2.3-4.5,3.6c-1,1.3-1.5,2.6-1.6,3.9c-0.1,1.3,0.2,2.6,0.9,3.8l1,1.8
				c0.7,1.3,1.6,2.2,2.8,2.8c1.1,0.6,2.5,0.8,4.1,0.7c1.6-0.1,3.4-0.8,5.4-1.9l3.5-1.9C106.9,116.9,108.3,115.7,109.3,114.4z"/>
			<path class="st0" d="M104.4,91.8l0.9-0.5l19.2,15l8.9-5l-2.6-24.3l0.8-0.5l3.5,31.7l-5.8,3.2L104.4,91.8z"/>
			<path class="st0" d="M133,76l19.6-10.9l2.5,4.5L136.3,80l3.3,6l18.8-10.4l2.4,4.3L142,90.3l3.6,6.4l18.8-10.4l2.5,4.5l-19.6,10.9
				L133,76z"/>
			<path class="st0" d="M170.8,55l0.8-0.4l14.3,25.7l-0.8,0.4L170.8,55z"/>
			<path class="st0" d="M187,53l-11.1,6.1l-3-5.4l22.9-12.7l3,5.4l-11.1,6.1l11.3,20.3l-0.8,0.4L187,53z"/>
		</g>
	</g>
</g>
</svg>
