<?xml version="1.0" encoding="utf-8"?>
<!-- Generator: Adobe Illustrator 28.0.0, SVG Export Plug-In . SVG Version: 6.00 Build 0)  -->
<svg version="1.1" id="Layer_1" xmlns="http://www.w3.org/2000/svg" xmlns:xlink="http://www.w3.org/1999/xlink" x="0px" y="0px"
	 viewBox="0 0 254.9 190.7" style="enable-background:new 0 0 254.9 190.7;" xml:space="preserve">
<style type="text/css">
	.st0{fill:#FFFFFF;}
	.st1{fill:#FF00FF;}
	.st2{fill:#29AAFF;}
	.st3{fill:#FCEE21;}
	.st4{fill:#FF4800;}
</style>
<g>
	<path d="M197.5,124.2l-2,12.8c-0.8,5.2-5.8,8.7-11,7.6l-16.6-3.5c-4.7-1-9.4,1.8-10.7,6.4l-9.2,31.4c-2.3,7.9-13.1,9-17,1.7
		L117,154.5c-3.1-5.9-11.2-6.6-15.4-1.4l-7.8,9.9c-4.8,6.1-14.5,3.8-16.2-3.7l-0.4-1.6c-1.5-6.5-9.2-9.4-14.5-5.4l-20.4,15.3
		c-7.7,5.7-17.9-2.6-13.8-11.3L40,131.8c2.8-6-1.4-13-8.1-13.1l-3.4-0.1c-8.4-0.2-12.2-10.7-5.7-16.2l9.7-8.3
		c3.8-3.2,4.3-8.8,1.2-12.7l-6.4-8.1c-4.7-6-0.6-14.8,7-14.9l19.6-0.4c6.4-0.1,10.7-6.7,8.4-12.6l-0.7-1.7
		c-3.4-8.6,6.5-16.3,14-10.9l10.9,7.9c4.3,3.1,10.4,2,13.2-2.5l4.9-7.8c3.1-4.9,9.9-5.7,14.1-1.7l0,0c5.1,4.9,13.6,2.4,15.3-4.5
		l3-12.1c2.6-10.7,18.4-8.6,18.2,2.4l0,0c-0.2,8.1,9.4,12.5,15.4,7l7.6-7c5.2-4.8,13.7-2.1,15.2,4.8l0.7,3.3c1.4,6.1,8.2,9.1,13.6,6
		l9.2-5.4c8.4-4.9,17.7,5,12.3,13.1l-10.4,15.6c-3.4,5.1-1,12.1,4.9,13.9l5.3,1.7c7.5,2.3,8.8,12.4,2.2,16.6l-2.9,1.8
		c-4.6,2.9-5.7,9.2-2.3,13.5l2.5,3.2c4.9,6.3,0.1,15.4-7.8,14.9l-13.5-0.9C202.4,116.1,198.2,119.5,197.5,124.2z"/>
	<g>
		<g>
			<path class="st0" d="M71.5,140.2c-2.5,0-4.8-0.7-6.8-2c-2.1-1.3-3.8-3.1-5-5.4l-2.2-4c-1.3-2.3-1.9-4.7-1.9-7.1
				c0-2.4,0.7-4.7,2-6.8c1.3-2.1,3.2-3.9,5.6-5.2c2.4-1.3,4.7-2,7-2c2.3,0,4.4,0.5,6.3,1.5s3.5,2.4,4.8,4.1l0,0l-0.9,0.5l0,0
				c-0.9-0.8-1.9-1.4-3-1.7c-1.1-0.3-2.4-0.3-3.8,0c-1.4,0.3-3,0.9-4.6,1.8l-4.1,2.3c-2.3,1.3-4.1,2.7-5.2,4.2
				c-1.1,1.5-1.7,3-1.8,4.6c-0.1,1.5,0.3,3.1,1.1,4.6l1,1.8c0.9,1.5,2,2.7,3.3,3.4c1.3,0.7,2.9,1,4.8,0.9c1.9-0.2,4-0.9,6.3-2.2
				l3.9-2.2c1.8-1,3.1-2.1,4.1-3.2c1-1.2,1.6-2.4,1.9-3.7c0.3-1.3,0.2-2.7-0.2-4l-14.4,8l-2.4-4.3l15.2-8.5l8.8,15.9l-0.9,0.5
				l-4.4-8c0.3,1.7,0.2,3.4-0.1,5.1c-0.4,1.8-1.1,3.5-2.3,5.1c-1.2,1.6-2.7,3-4.7,4.1C76.5,139.6,74,140.2,71.5,140.2z"/>
			<path class="st0" d="M77.1,102l13.3-7.4c1.8-1,3.7-1.5,5.5-1.5c1.8,0,3.4,0.4,4.8,1.2c1.4,0.8,2.5,2,3.3,3.4l0.2,0.4
				c0.8,1.4,1.2,3,1.1,4.7s-0.5,3.3-1.5,4.8c-1,1.5-2.4,2.8-4.2,3.8l-13.3,7.4L77.1,102z M103.7,102.4c0.5-1.1,0.4-2.3-0.2-3.4
				l-0.1-0.1c-0.6-1.1-1.6-1.8-2.8-2c-1.2-0.2-2.6,0.1-4,0.9l-15.9,8.8l4.2,7.5l15.9-8.8C102.3,104.5,103.2,103.5,103.7,102.4z
				 M85.1,116.3l15-8.3c2.4-1.3,4.5-1.7,6.5-1.1c1.9,0.6,3.4,1.9,4.5,3.8l4.1,7.4l-0.9,0.5l-3.2-5.7c-0.9-1.6-2-2.6-3.3-3
				c-1.3-0.4-2.8,0-4.7,1L87,119.9L85.1,116.3z M85.7,117.5l0.9-0.5l7.2,12.9l-0.9,0.5L85.7,117.5z"/>
			<path class="st0" d="M101.1,88.7l21.7-12l2.8,5l-20.8,11.5l3.7,6.6l20.8-11.5l2.6,4.7L111,104.6l3.9,7.1l20.8-11.5l2.8,5
				l-21.7,12L101.1,88.7z"/>
			<path class="st0" d="M169.9,87.7l-0.9,0.5l-21.3-16.6l-9.9,5.5l2.9,26.8l-1,0.5l-3.9-35.1l6.4-3.5L169.9,87.7z M138.7,89.3
				l19.2-10.6l5.1,4.2l-23.4,13L138.7,89.3z"/>
			<path class="st0" d="M170.6,57.9l-12.2,6.8l-3.3-5.9l25.4-14.1l3.3,5.9l-12.2,6.8L184,79.9l-0.9,0.5L170.6,57.9z"/>
			<path class="st0" d="M183.5,43l6.3-3.5l8,20.7l-0.9,0.5L183.5,43z M194.7,65.7l8.3-4.6l3.5,6.3l-8.3,4.6L194.7,65.7z"/>
		</g>
	</g>
</g>
</svg>
