<?xml version="1.0" encoding="utf-8"?>
<!-- Generator: Adobe Illustrator 28.0.0, SVG Export Plug-In . SVG Version: 6.00 Build 0)  -->
<svg version="1.1" id="Layer_1" xmlns="http://www.w3.org/2000/svg" xmlns:xlink="http://www.w3.org/1999/xlink" x="0px" y="0px"
	 viewBox="0 0 183.6 129.6" style="enable-background:new 0 0 183.6 129.6;" xml:space="preserve">
<style type="text/css">
	.st0{fill:#FFFFFF;}
	.st1{fill:#FF00FF;}
	.st2{fill:#29AAFF;}
	.st3{fill:#FCEE21;}
	.st4{fill:#FF4800;}
</style>
<g>
	<path class="st2" d="M126.4,107.9l-5.8,7.7c-2.4,3.1-6.9,3.6-9.9,1.1l-9.7-8.1c-2.7-2.3-6.8-2.1-9.3,0.4l-17.1,17.3
		c-4.3,4.4-11.8,1.3-11.7-4.8l0.1-22.1c0-4.9-5-8.3-9.5-6.3L45,96.8c-5.3,2.3-10.9-2.6-9.3-8.1l0.3-1.2c1.3-4.8-2.7-9.4-7.6-8.6
		L9.7,81.6c-7.1,1.1-10.8-8-5.1-12.3l16.1-11.9c4-2.9,3.6-9-0.7-11.4l-2.2-1.3c-5.4-3.1-4.2-11.3,1.9-12.6l9.3-2
		c3.6-0.8,5.9-4.3,5.3-7.9L33,14.6c-1-5.6,4.8-9.9,9.8-7.3l13,6.6c4.3,2.2,9.4-0.6,9.9-5.3l0.2-1.4c0.8-6.8,10-8.4,13-2.2l4.3,9
		c1.7,3.6,6.1,4.9,9.5,3l6-3.3c3.8-2.1,8.5-0.3,9.9,3.9l0,0c1.6,5,8.1,6.4,11.6,2.5l6.2-6.9c5.5-6.1,15.1,0.9,11,8l0,0
		c-3,5.2,1.8,11.5,7.6,10l7.4-1.9c5.1-1.3,9.7,3.4,8.3,8.5l-0.7,2.4c-1.3,4.5,2.2,8.9,6.8,8.7l7.9-0.3c7.3-0.3,9.9,9.5,3.4,12.9
		L165.8,68c-4,2.1-4.9,7.6-1.7,10.8l2.9,3c4.1,4.2,1.4,11.2-4.4,11.6l-2.5,0.2c-4,0.3-7,4-6.3,8l0.5,3c1,5.8-5.3,10.1-10.4,7
		l-8.5-5.3C132.5,104.4,128.5,105.1,126.4,107.9z"/>
	<g>
		<g>
			<path d="M43.3,38.1l5.4,1.4l4,18.7l6.4,1.7l4.2-16.6l0.7,0.2l-5.6,21.7L53,63.8l-3.9-18.7l-6.4-1.7L38.4,60l-0.7-0.2L43.3,38.1z"
				/>
			<path d="M84.4,71.8l-0.7-0.2l-2.8-18.4l-7.6-1.9L62.1,66.1l-0.7-0.2L76,46.5l4.9,1.2L84.4,71.8z M68,57.8l14.6,3.7l0.5,4.5
				l-17.8-4.6L68,57.8z"/>
			<path d="M89.8,62.7l0.7,0.2l-2.5,9.9l-0.7-0.2L89.8,62.7z M90,61.8l11.4,2.9c1.8,0.5,3.1,1.3,3.7,2.5c0.7,1.2,0.8,2.6,0.5,4
				l-1.4,5.6l-0.7-0.2l1.1-4.3c0.3-1.2,0.2-2.2-0.2-3c-0.5-0.8-1.4-1.4-2.8-1.7l-12.2-3.1L90,61.8z M92.8,50.8l10.1,2.6
				c1.4,0.4,2.6,1,3.5,1.8c0.9,0.8,1.5,1.8,1.8,2.9c0.3,1.1,0.3,2.2,0,3.3l-0.1,0.3c-0.3,1.1-0.8,2.1-1.6,2.9
				c-0.8,0.8-1.8,1.4-3,1.7c-1.2,0.3-2.5,0.3-3.9-0.1l-10.1-2.6L92.8,50.8z M105.9,63.6c0.8-0.3,1.3-0.9,1.5-1.8l0-0.1
				c0.2-0.9,0.1-1.6-0.4-2.3c-0.5-0.7-1.3-1.1-2.4-1.4l-12.1-3.1L91,60.6l12.1,3.1C104.2,64,105.1,63.9,105.9,63.6z"/>
			<path d="M112.9,56l0.7,0.2l-4.4,17.2l16,4.1l-1.2,4.5l-16.7-4.3L112.9,56z"/>
			<path d="M132.2,60.9l0.8,0.2l3.1,9.1l10.2,2.6l7.1-6.4l0.8,0.2l-11.7,10.7l-5.2-1.3L132.2,60.9z M140,74.8l0.7,0.2L138,85.5
				l-0.7-0.2L140,74.8z"/>
		</g>
	</g>
</g>
</svg>
