<?xml version="1.0" encoding="utf-8"?>
<!-- Generator: Adobe Illustrator 28.0.0, SVG Export Plug-In . SVG Version: 6.00 Build 0)  -->
<svg version="1.1" id="Layer_1" xmlns="http://www.w3.org/2000/svg" xmlns:xlink="http://www.w3.org/1999/xlink" x="0px" y="0px"
	 viewBox="0 0 254.9 190.7" style="enable-background:new 0 0 254.9 190.7;" xml:space="preserve">
<style type="text/css">
	.st0{fill:#FFFFFF;}
	.st1{fill:#FF00FF;}
	.st2{fill:#29AAFF;}
	.st3{fill:#FCEE21;}
	.st4{fill:#FF4800;}
</style>
<g>
	<path d="M179.3,152l-7.6,11.2c-3.1,4.6-9.4,5.6-13.8,2.3l-14.2-10.7c-4-3-9.7-2.5-13,1.3l-22.8,25.7c-5.7,6.5-16.5,2.7-16.9-6
		l-1.4-31.2c-0.3-7-7.7-11.3-13.9-8.2l-11.8,5.8c-7.3,3.6-15.5-2.9-13.7-10.8l0.4-1.7c1.5-6.8-4.5-13-11.3-11.6l-26.2,5.3
		c-9.8,2-15.8-10.5-8.1-16.9l21.8-18c5.4-4.4,4.4-12.9-1.8-16.1L21.8,71c-7.9-4-6.7-15.6,1.8-17.9l12.9-3.5c5-1.4,8-6.4,6.9-11.5
		L41,27.5c-1.8-7.8,6.1-14.2,13.3-11L73,24.9c6.1,2.7,13.1-1.5,13.6-8.2l0.1-2c0.6-9.7,13.5-12.5,18.1-4l6.7,12.4
		c2.7,4.9,8.9,6.5,13.6,3.5l8.1-5.1c5.1-3.2,12-1,14.2,4.7l0,0c2.7,6.9,11.8,8.4,16.5,2.6l8.2-10.1c7.3-9,21.3,0.1,16.1,10.4l0,0
		c-3.8,7.6,3.3,16.1,11.5,13.6l10.3-3.2c7.1-2.2,13.9,4.1,12.3,11.3l-0.8,3.4c-1.4,6.4,3.7,12.3,10.2,11.7l11.1-1
		c10.2-0.9,14.6,12.6,5.8,17.9L231.9,93c-5.5,3.3-6.3,11-1.6,15.4l4.3,4c6,5.6,2.8,15.7-5.4,16.7l-3.5,0.4
		c-5.7,0.7-9.5,6.2-8.2,11.7l0.9,4.1c1.9,8.1-6.8,14.6-14.1,10.6L192,149C187.6,146.6,182.1,147.9,179.3,152z"/>
	<g>
		<g>
			<path class="st0" d="M39.5,90.4l0.8-0.1l5.1,13.2l6.8-0.4l3.1-13.8l5.1-0.3l4.9,13.3l6.8-0.4L75.3,88l0.8,0l-4.6,19.2l-5.1,0.3
				l-4.9-13.3l-6.8,0.4l-3.1,13.8l-5.1,0.3L39.5,90.4z"/>
			<path class="st0" d="M82.8,105.3c-1.5-0.6-2.6-1.6-3.5-2.8c-0.9-1.2-1.4-2.6-1.5-4.2l-0.1-2c-0.1-1.6,0.2-3,0.9-4.3
				c0.7-1.3,1.7-2.4,3.1-3.3c1.4-0.8,2.9-1.3,4.6-1.4c1.7-0.1,3.3,0.2,4.8,0.8c1.4,0.7,2.6,1.6,3.5,2.8c0.9,1.2,1.4,2.6,1.5,4.2
				l0.1,2c0.1,1.6-0.2,3-0.9,4.3c-0.7,1.3-1.7,2.4-3.1,3.3c-1.3,0.8-2.9,1.3-4.6,1.4C85.9,106.2,84.3,106,82.8,105.3z M93,100.5
				c0.9-0.4,1.6-1,2-1.7c0.4-0.7,0.6-1.4,0.5-2.3l-0.1-0.9c-0.1-0.8-0.3-1.5-0.8-2.1c-0.5-0.6-1.2-1.1-2.2-1.4
				c-1-0.3-2.1-0.4-3.6-0.3l-4.3,0.3c-1.4,0.1-2.6,0.4-3.5,0.8c-0.9,0.4-1.6,1-2,1.7c-0.4,0.7-0.6,1.4-0.5,2.3l0.1,0.9
				c0.1,0.8,0.3,1.6,0.8,2.2c0.5,0.6,1.2,1.1,2.2,1.4c1,0.3,2.1,0.4,3.6,0.3l4.3-0.3C90.9,101.2,92,100.9,93,100.5z"/>
			<path class="st0" d="M96.8,86.6l0.8,0l0.3,4.9c0.7-1.5,1.7-2.8,3.1-3.8c1.4-1,3.1-1.6,5-1.7c1.7-0.1,3.3,0.1,4.6,0.8
				c1.3,0.6,2.4,1.5,3.1,2.7c0.8,1.2,1.2,2.5,1.3,3.9l0.7,10.9l-0.8,0l-0.6-9.2c-0.1-1-0.3-1.8-0.8-2.5s-1.1-1.2-2.1-1.5
				c-0.9-0.3-2.1-0.4-3.5-0.3l-3.9,0.3c-1.4,0.1-2.6,0.4-3.5,0.8c-0.9,0.4-1.5,1-1.9,1.7c-0.4,0.7-0.5,1.6-0.4,2.6l0.6,9.2l-0.8,0
				L96.8,86.6z"/>
			<path class="st0" d="M135.3,103l-0.8,0l-0.3-5.2c-0.7,1.6-1.8,3-3.2,4c-1.4,1-3.1,1.6-5.1,1.8c-1.7,0.1-3.3-0.2-4.7-0.8
				c-1.4-0.7-2.5-1.6-3.4-2.8c-0.8-1.2-1.3-2.6-1.4-4.2l-0.1-2c-0.1-1.6,0.2-3,0.9-4.3c0.7-1.3,1.7-2.4,3-3.3
				c1.3-0.8,2.8-1.3,4.5-1.4c2-0.1,3.7,0.2,5.3,1.1c1.6,0.8,2.8,2,3.7,3.6l-0.7-10.3l0.8,0L135.3,103z M123.6,99.1l4.3-0.3
				c1.4-0.1,2.6-0.4,3.5-0.8c0.9-0.4,1.6-1,2-1.7c0.4-0.7,0.6-1.4,0.5-2.3l-0.1-0.9c-0.1-0.8-0.3-1.5-0.8-2.2
				c-0.5-0.6-1.2-1.1-2.2-1.4c-1-0.3-2.1-0.4-3.6-0.3l-4.3,0.3c-1.4,0.1-2.6,0.4-3.5,0.8c-0.9,0.4-1.6,1-2,1.7
				c-0.4,0.7-0.6,1.4-0.5,2.2l0.1,0.9c0.1,0.8,0.3,1.5,0.8,2.2c0.5,0.6,1.2,1.1,2.2,1.4C121,99,122.2,99.1,123.6,99.1z"/>
			<path class="st0" d="M140.9,101.5c-1.5-0.6-2.6-1.6-3.5-2.8c-0.9-1.2-1.4-2.6-1.5-4.2l-0.1-2c-0.1-1.6,0.2-3,0.9-4.3
				c0.7-1.3,1.8-2.4,3.1-3.3c1.4-0.8,2.9-1.3,4.6-1.4c1.8-0.1,3.5,0.2,4.9,0.8c1.4,0.7,2.6,1.6,3.4,2.9c0.8,1.2,1.3,2.6,1.4,4
				l0.2,2.6l-17.7,1.2l-0.2-3.1l16.9-1.1l0,0c-0.2-0.8-0.5-1.5-1.1-2c-0.5-0.5-1.3-0.9-2.4-1.2c-1-0.3-2.3-0.3-3.9-0.2l-2.4,0.2
				c-1.7,0.1-3.1,0.4-4.1,0.9c-1,0.5-1.8,1.1-2.2,1.8c-0.4,0.8-0.6,1.6-0.6,2.6l0.1,1.4c0.1,1,0.4,1.9,0.9,2.6
				c0.5,0.7,1.3,1.2,2.4,1.5c1.1,0.3,2.5,0.4,4.2,0.3l3.6-0.2c1.8-0.1,3.1-0.5,3.9-1c0.9-0.6,1.4-1.3,1.7-2.2l0.8,0l0,0
				c-0.2,1.2-0.7,2.3-1.4,3.4c-0.7,1.1-1.7,2-2.9,2.7c-1.2,0.7-2.6,1.1-4.3,1.2C144,102.4,142.4,102.2,140.9,101.5z"/>
			<path class="st0" d="M154.9,82.8l0.8,0l0.3,4.9c0.7-1.5,1.7-2.7,3.1-3.7c1.4-1,3.1-1.6,5-1.7c1.8-0.1,3.3,0.1,4.6,0.7
				c1.3,0.6,2.3,1.5,3.1,2.7c0.8,1.2,1.2,2.6,1.3,4.2l0.1,1.8l-0.8,0l0-0.3c-0.1-1-0.3-1.8-0.8-2.5c-0.4-0.7-1.1-1.2-2.1-1.5
				c-0.9-0.3-2.1-0.4-3.6-0.3l-3.8,0.3c-1.4,0.1-2.6,0.4-3.5,0.8c-0.9,0.4-1.5,1-1.9,1.8c-0.4,0.7-0.5,1.6-0.5,2.6l0.6,9.1l-0.8,0
				L154.9,82.8z"/>
			<path class="st0" d="M172.9,83.5l17.3-1.1l0.3,4.7l-17.3,1.1L172.9,83.5z M181.8,77.1c0.6-0.8,1.4-1.2,2.5-1.3l6.2-0.4l0.2,3.3
				l-7.2,0.5c-0.6,0-1.1,0.2-1.3,0.5c-0.2,0.3-0.3,0.7-0.3,1.3l1.2,18.9l-0.8,0l-1.3-19.7C181,78.9,181.2,77.9,181.8,77.1z"/>
			<path class="st0" d="M210.2,98.1l-0.8,0l-0.3-4.9c-0.7,1.5-1.7,2.8-3.1,3.8c-1.4,1-3.1,1.6-5,1.7c-1.7,0.1-3.3-0.1-4.6-0.8
				c-1.3-0.6-2.4-1.5-3.1-2.7c-0.8-1.2-1.2-2.5-1.3-3.9l-0.7-10.9l0.8,0l0.6,9.2c0.1,1,0.3,1.8,0.8,2.5c0.5,0.7,1.1,1.2,2.1,1.5
				c0.9,0.3,2.1,0.4,3.5,0.3l3.9-0.3c1.4-0.1,2.6-0.4,3.5-0.8c0.9-0.4,1.5-1,1.9-1.7c0.4-0.7,0.5-1.6,0.4-2.6l-0.6-9.2l0.8,0
				L210.2,98.1z"/>
			<path class="st0" d="M210,74.1l0.8,0l1.6,24l-0.8,0L210,74.1z"/>
		</g>
	</g>
</g>
</svg>
