<?xml version="1.0" encoding="utf-8"?>
<!-- Generator: Adobe Illustrator 28.0.0, SVG Export Plug-In . SVG Version: 6.00 Build 0)  -->
<svg version="1.1" id="Layer_1" xmlns="http://www.w3.org/2000/svg" xmlns:xlink="http://www.w3.org/1999/xlink" x="0px" y="0px"
	 viewBox="0 0 144 131" style="enable-background:new 0 0 144 131;" xml:space="preserve">
<style type="text/css">
	.st0{fill:#FFFFFF;}
	.st1{fill:#FF00FF;}
	.st2{fill:#29AAFF;}
	.st3{fill:#FCEE21;}
	.st4{fill:#FF4800;}
</style>
<path class="st1" d="M118.1,84.4l-1.3,8.5c-0.5,3.5-3.9,5.8-7.3,5.1l-11.1-2.3c-3.1-0.7-6.2,1.2-7.1,4.3l-6.1,21
	c-1.5,5.3-8.7,6-11.3,1.2l-9.3-17.6c-2.1-3.9-7.5-4.4-10.2-0.9l-5.2,6.6c-3.2,4-9.7,2.6-10.8-2.5l-0.2-1.1c-1-4.3-6.1-6.3-9.7-3.6
	l-13.6,10.2c-5.1,3.8-12-1.8-9.2-7.5l7.7-16.3c1.9-4-1-8.6-5.4-8.8l-2.3-0.1c-5.6-0.1-8.1-7.2-3.8-10.8l6.5-5.5
	c2.5-2.1,2.9-5.9,0.8-8.5l-4.3-5.4c-3.1-4-0.4-9.8,4.7-9.9l13-0.3c4.3-0.1,7.2-4.4,5.6-8.4l-0.5-1.2c-2.3-5.7,4.3-10.9,9.3-7.2
	l7.2,5.3c2.9,2.1,6.9,1.3,8.8-1.7l3.3-5.2c2.1-3.3,6.6-3.8,9.4-1.1l0,0c3.4,3.3,9.1,1.6,10.2-3l2-8c1.7-7.1,12.3-5.7,12.1,1.6l0,0
	c-0.1,5.4,6.3,8.3,10.3,4.7l5.1-4.7c3.5-3.2,9.1-1.4,10.1,3.2l0.5,2.2c0.9,4.1,5.5,6.1,9.1,4l6.1-3.6c5.6-3.3,11.8,3.3,8.2,8.7
	l-7,10.4c-2.3,3.4-0.7,8.1,3.3,9.3l3.6,1.1c5,1.6,5.9,8.2,1.4,11l-1.9,1.2c-3.1,1.9-3.8,6.1-1.5,9l1.7,2.1c3.3,4.2,0.1,10.3-5.2,9.9
	l-9-0.6C121.4,79,118.6,81.3,118.1,84.4z"/>
<g>
	<g>
		<path d="M34.5,89.7c-0.9,0.1-1.7-0.1-2.4-0.4c-0.6-0.3-1.1-0.8-1.4-1.5l-0.1-0.2c-0.4-0.9-0.4-1.8,0-2.7c0.4-0.9,1.5-1.9,3.2-2.8
			l5.9-3.2l0.9,1.9l-6.8,3.6c-1,0.5-1.7,1-2.1,1.3c-0.5,0.4-0.7,0.7-0.8,0.9s-0.1,0.5,0.1,0.8l0,0c0.1,0.2,0.3,0.4,0.5,0.5
			s0.6,0.1,1.1,0c0.5-0.1,1.2-0.3,2-0.7l3.1-1.4c1-0.5,1.8-1,2.3-1.5c0.5-0.5,0.8-1,0.8-1.5c0.1-0.5,0-1.1-0.3-1.6L40,79.7
			c-0.3-0.5-0.6-1-1.1-1.3c-0.5-0.3-1-0.4-1.7-0.4c-0.7,0-1.5,0.3-2.5,0.7l-2.4,1.1c-0.8,0.4-1.4,0.8-1.8,1.1
			c-0.4,0.4-0.7,0.8-0.8,1.2c-0.1,0.4-0.2,0.8-0.2,1.2l-0.5,0.2c-0.2-0.9-0.2-1.8,0-2.6c0.2-0.8,0.6-1.6,1.2-2.4
			c0.6-0.7,1.4-1.3,2.4-1.8c1.2-0.6,2.4-0.8,3.4-0.7c1,0.1,1.9,0.5,2.7,1c0.7,0.6,1.3,1.3,1.7,2.1l3.1,6.6l-0.5,0.2l-1.4-3.1
			c0,1.1-0.4,2.2-1,3.2c-0.6,1-1.6,1.8-3,2.4C36.5,89.3,35.4,89.6,34.5,89.7z"/>
		<path d="M38.9,73.9l0.5-0.2l1.4,3c-0.1-1,0.1-2,0.5-2.9c0.4-0.9,1.2-1.6,2.2-2.1c0.8-0.4,1.7-0.5,2.5-0.4c0.8,0.1,1.6,0.5,2.2,1
			c0.7,0.5,1.2,1.2,1.6,2.1l3.3,7l-0.5,0.2L50,75.9c-0.3-0.6-0.6-1-1-1.3c-0.4-0.3-1-0.5-1.6-0.4c-0.6,0-1.3,0.2-2.1,0.6l-1,0.4
			c-0.8,0.4-1.4,0.8-1.8,1.3s-0.6,1-0.7,1.5c0,0.5,0.1,1.1,0.4,1.6l2.7,5.8l-0.5,0.2L38.9,73.9z M48.8,73.3l0.3-0.1
			c-0.1-0.7,0-1.3,0.2-2c0.2-0.7,0.5-1.3,0.9-1.9c0.4-0.6,1-1.1,1.7-1.4c0.8-0.4,1.7-0.5,2.5-0.4c0.8,0.1,1.6,0.5,2.3,1
			c0.7,0.6,1.2,1.2,1.6,2.1l3.3,7L61,77.8L58.3,72c-0.3-0.6-0.6-1-1-1.3c-0.4-0.3-0.9-0.5-1.6-0.5c-0.6,0-1.4,0.2-2.2,0.6l-0.9,0.4
			c-0.8,0.4-1.4,0.8-1.8,1.3s-0.6,1-0.7,1.5c0,0.5,0.1,1.1,0.4,1.6l2.7,5.8l-0.5,0.2L48.8,73.3z"/>
		<path d="M64.5,75.6c-0.9,0.1-1.7-0.1-2.4-0.4c-0.6-0.3-1.1-0.8-1.4-1.5l-0.1-0.2c-0.4-0.9-0.4-1.8,0-2.7c0.4-0.9,1.5-1.9,3.2-2.8
			l5.9-3.2l0.9,1.9L64,70.2c-1,0.5-1.7,1-2.1,1.3c-0.5,0.4-0.7,0.7-0.8,0.9S61,73,61.1,73.3l0,0c0.1,0.2,0.3,0.4,0.5,0.5
			s0.6,0.1,1.1,0c0.5-0.1,1.2-0.3,2-0.7l3.1-1.4c1-0.5,1.8-1,2.3-1.5c0.5-0.5,0.8-1,0.8-1.5c0.1-0.5,0-1.1-0.3-1.6l-0.7-1.4
			c-0.3-0.5-0.6-1-1.1-1.3c-0.5-0.3-1-0.4-1.7-0.4c-0.7,0-1.5,0.3-2.5,0.7l-2.4,1.1c-0.8,0.4-1.4,0.8-1.8,1.1
			c-0.4,0.4-0.7,0.8-0.8,1.2c-0.1,0.4-0.2,0.8-0.2,1.2l-0.5,0.2c-0.2-0.9-0.2-1.8,0-2.6c0.2-0.8,0.6-1.6,1.2-2.4
			c0.6-0.7,1.4-1.3,2.4-1.8c1.2-0.6,2.4-0.8,3.4-0.7c1,0.1,1.9,0.5,2.7,1c0.7,0.6,1.3,1.3,1.7,2.1l3.1,6.6l-0.5,0.2l-1.4-3.1
			c0,1.1-0.4,2.2-1,3.2c-0.6,1-1.6,1.8-3,2.4C66.5,75.2,65.4,75.6,64.5,75.6z"/>
		<path d="M73,68.9l7.1-11l-10,4.7l-1.3-2.7l10.9-5.1l1.3,2.7l-7,11l10-4.7l1.3,2.7l-10.9,5.1L73,68.9z"/>
		<path d="M78.9,51.3l0.7-0.3l1.2,2.5l-0.7,0.3L78.9,51.3z M80.5,54.5l0.5-0.2l5.5,11.7l-0.5,0.2L80.5,54.5z"/>
		<path d="M81.8,53.8l0.5-0.2l1.4,3c0-1.1,0.4-2.2,1-3.2c0.6-1,1.6-1.8,2.7-2.3c1.1-0.5,2.1-0.7,3.1-0.7c1,0.1,1.9,0.4,2.7,0.9
			c0.8,0.5,1.4,1.3,1.8,2.2l3.2,6.8l-0.5,0.2L95,54.9c-0.3-0.6-0.7-1.1-1.1-1.4c-0.5-0.3-1-0.5-1.7-0.4c-0.7,0-1.4,0.3-2.3,0.7
			l-2.4,1.1c-0.9,0.4-1.6,0.9-2,1.4c-0.5,0.5-0.7,1-0.8,1.6c0,0.5,0.1,1.1,0.4,1.7l2.7,5.7l-0.5,0.2L81.8,53.8z"/>
		<path d="M109.8,53.4l-0.5,0.2l-1.2-2.6c0,1.2-0.4,2.3-1,3.3c-0.7,1-1.6,1.8-2.8,2.4c-1.1,0.5-2.1,0.7-3.2,0.7
			c-1.1-0.1-2-0.4-2.8-0.9c-0.8-0.5-1.5-1.3-1.9-2.2l-0.4-0.9c-0.4-0.9-0.6-1.9-0.5-2.8c0.1-1,0.5-1.9,1.1-2.8
			c0.6-0.9,1.5-1.5,2.6-2c1.2-0.6,2.4-0.8,3.6-0.6c1.2,0.1,2.3,0.6,3.2,1.3l-1.5-3.2L105,43L109.8,53.4z M106.5,51.8
			c0.5-0.5,0.7-1,0.8-1.5c0.1-0.5,0-1-0.2-1.5l-0.1-0.2c-0.2-0.5-0.6-0.8-1-1.1c-0.4-0.3-1-0.4-1.7-0.3c-0.7,0-1.4,0.3-2.2,0.7
			l-3,1.4c-0.8,0.4-1.5,0.8-1.9,1.3c-0.5,0.5-0.7,1-0.8,1.5c-0.1,0.5,0,1,0.2,1.5l0.1,0.2c0.2,0.5,0.6,0.8,1,1.1
			c0.4,0.3,1,0.4,1.7,0.3c0.7,0,1.4-0.3,2.2-0.6l3-1.4C105.4,52.7,106,52.3,106.5,51.8z M111,57.4c-0.2,0.7-0.6,1.1-1.3,1.5
			l-7.4,3.5l-1-2.1l8-3.7c0.4-0.2,0.6-0.4,0.7-0.7c0.1-0.3,0-0.6-0.1-0.9l-2.2-4.8l0.5-0.2l2.5,5.3C111.1,56,111.2,56.8,111,57.4z"
			/>
		<path d="M105.3,39l3.3-1.5l3.3,10.7l-0.5,0.2L105.3,39z M110.1,50.8l4.3-2l1.5,3.3l-4.4,2L110.1,50.8z"/>
	</g>
</g>
</svg>
