<?xml version="1.0" encoding="utf-8"?>
<!-- Generator: Adobe Illustrator 28.0.0, SVG Export Plug-In . SVG Version: 6.00 Build 0)  -->
<svg version="1.1" id="Layer_1" xmlns="http://www.w3.org/2000/svg" xmlns:xlink="http://www.w3.org/1999/xlink" x="0px" y="0px"
	 viewBox="0 0 216 180" style="enable-background:new 0 0 216 180;" xml:space="preserve">
<style type="text/css">
	.st0{fill:#FFFFFF;}
	.st1{fill:#FF00FF;}
	.st2{fill:#29AAFF;}
	.st3{fill:#FCEE21;}
	.st4{fill:#FF4800;}
</style>
<path class="st3" d="M148.1,143.3l-7.2,9c-2.9,3.7-8.3,4.1-11.8,1l-11.3-10c-3.2-2.8-8-2.7-11.1,0.2l-21,20.2
	c-5.3,5.1-14.1,1.2-13.9-6.2l0.8-26.5c0.2-5.9-5.7-10.1-11.2-7.9L51,127.5c-6.4,2.6-12.9-3.4-10.9-10l0.4-1.4
	c1.8-5.7-2.9-11.3-8.8-10.5l-22.5,2.8c-8.5,1-12.7-9.9-5.7-14.8l19.6-13.8c4.8-3.4,4.6-10.7-0.5-13.7l-2.6-1.6
	c-6.4-3.9-4.7-13.6,2.7-15.1L34,47.2c4.3-0.8,7.2-4.9,6.6-9.3l-1.4-9.1c-1-6.7,6.1-11.6,12-8.4l15.3,8.3c5,2.7,11.2-0.4,12-6.1
	l0.2-1.6c1.1-8.1,12.2-9.7,15.6-2.2l4.9,10.9c1.9,4.3,7.1,6.1,11.3,3.9l7.2-3.8c4.6-2.4,10.2,0,11.7,4.9l0,0c1.8,6,9.5,7.9,13.8,3.3
	l7.6-8c6.7-7.1,18,1.5,13,9.9l0,0c-3.7,6.2,1.8,13.8,8.8,12.2l9-2c6.1-1.4,11.5,4.4,9.6,10.4l-0.9,2.8c-1.6,5.3,2.4,10.7,7.9,10.6
	l9.5-0.1c8.7-0.1,11.5,11.7,3.7,15.5l-14.9,7.4c-4.9,2.4-6.1,8.9-2.4,12.9l3.4,3.7c4.7,5.1,1.3,13.4-5.6,13.8l-3,0.1
	c-4.8,0.2-8.4,4.6-7.7,9.4l0.5,3.6c1,7-6.7,12-12.6,8l-10-6.6C155.5,139.2,150.8,140,148.1,143.3z"/>
<g>
	<g>
		<path d="M48.9,92.3c-0.9-0.5-1.6-1-2-1.7c-0.4-0.7-0.6-1.5-0.5-2.3l0-0.3c0.1-1.1,0.5-2,1.3-2.6c0.8-0.6,2-0.9,3.7-0.9l8.5,0.3
			l-0.2,2.8L49,87.1c-0.5,0-0.9,0-1.2,0c-0.3,0.1-0.5,0.1-0.6,0.2c-0.1,0.1-0.1,0.2-0.2,0.3l0,0c0,0.1,0,0.2,0.1,0.3
			c0.1,0.1,0.2,0.2,0.3,0.2c0.2,0.1,0.4,0.1,0.7,0.1l7.7,0.6c1,0.1,1.8,0.1,2.3,0s0.9-0.3,1.1-0.5c0.2-0.3,0.3-0.6,0.4-1.1l0.1-1.5
			c0-0.5,0-0.9-0.1-1.2c-0.1-0.3-0.4-0.5-0.9-0.6c-0.5-0.2-1.3-0.3-2.3-0.4l-6.7-0.5c-0.5,0-0.8,0-1.1,0c-0.3,0.1-0.5,0.1-0.6,0.3
			c-0.1,0.1-0.2,0.3-0.3,0.5l-0.6,0c0.3-1,0.7-1.9,1.4-2.6c0.7-0.7,1.5-1.3,2.4-1.7c1-0.4,2.1-0.5,3.3-0.4c1.5,0.1,2.7,0.5,3.6,1.2
			c0.9,0.7,1.6,1.5,2,2.5c0.4,1,0.5,2,0.5,3l-0.7,8l-0.6,0l0.3-3.7c-0.6,1.1-1.5,1.9-2.7,2.5c-1.2,0.6-2.5,0.8-4.2,0.7
			C51,93.1,49.9,92.8,48.9,92.3z"/>
		<path d="M61.7,79.7l0.6,0l1.6,7.2l7,0.6l2.7-6.9l3.9,0.3l1.5,7.2l7,0.6l2.8-6.9l0.6,0l-5.5,13.8l-3.8-0.3l-1.5-7.2l-6.9-0.6
			l-2.6,6.9l-3.8-0.3L61.7,79.7z"/>
		<path d="M92.3,95.6c-1-0.6-1.8-1.5-2.3-2.5c-0.5-1-0.7-2.1-0.6-3.3l0.1-1.5c0.1-1.2,0.5-2.2,1.2-3.1c0.7-0.9,1.6-1.6,2.7-2.1
			c1.1-0.5,2.3-0.7,3.6-0.5c1.4,0.1,2.6,0.5,3.6,1.2c1,0.7,1.7,1.5,2.2,2.5c0.5,1,0.7,2,0.6,3.1l-0.2,2.5l-13.3-1.1l0.3-3.3l12.6,1
			c-0.1-0.2-0.2-0.4-0.4-0.6c-0.2-0.2-0.6-0.3-1.2-0.5c-0.6-0.1-1.5-0.2-2.6-0.3l-3.7-0.3c-1.3-0.1-2.2-0.1-2.9,0
			c-0.6,0.1-1.1,0.2-1.3,0.5c-0.2,0.3-0.4,0.7-0.4,1.2L90,89.8c0,0.5,0,1,0.2,1.3c0.2,0.3,0.6,0.5,1.2,0.7c0.6,0.2,1.6,0.3,2.9,0.4
			l6.2,0.5c0.6,0.1,1,0,1.3-0.1c0.2-0.1,0.4-0.2,0.5-0.4l0.6,0c-0.3,0.8-0.8,1.6-1.4,2.3c-0.6,0.7-1.5,1.3-2.4,1.7
			c-1,0.4-2.1,0.5-3.3,0.4C94.5,96.6,93.3,96.2,92.3,95.6z"/>
		<path d="M107.2,96.9c-1-0.5-1.8-1.3-2.3-2.1c-0.5-0.9-0.8-1.8-0.8-2.9l0.6,0c0,0.2,0.1,0.4,0.2,0.6c0.1,0.2,0.3,0.3,0.6,0.4
			c0.3,0.1,0.7,0.2,1.2,0.2l9.3,0.8c0.5,0,0.9,0,1.1,0c0.3,0,0.4-0.1,0.5-0.2c0.1-0.1,0.1-0.2,0.1-0.3c0-0.1,0-0.3-0.1-0.4
			s-0.2-0.2-0.5-0.3c-0.3-0.1-0.7-0.1-1.2-0.2l-6.6-0.7c-1.7-0.2-2.8-0.6-3.5-1.3s-1-1.5-0.9-2.6l0-0.3c0.1-0.8,0.4-1.6,1-2.2
			c0.6-0.6,1.4-1.1,2.4-1.4c1-0.3,2.3-0.4,3.7-0.3c1.5,0.1,2.8,0.5,3.7,1c1,0.6,1.7,1.3,2.2,2.1c0.5,0.8,0.7,1.7,0.7,2.7l-0.6,0
			c-0.1-0.2-0.1-0.4-0.2-0.5c-0.1-0.1-0.3-0.3-0.5-0.4c-0.2-0.1-0.6-0.2-1.1-0.2l-9-0.7c-0.5,0-0.8,0-1.1,0c-0.3,0-0.4,0.1-0.5,0.1
			c-0.1,0.1-0.1,0.2-0.1,0.3c0,0.1,0,0.2,0.1,0.3c0.1,0.1,0.2,0.2,0.5,0.2c0.3,0.1,0.7,0.2,1.2,0.2l6.6,0.7c1.6,0.2,2.8,0.6,3.5,1.2
			c0.7,0.6,1,1.5,0.9,2.6l0,0.3c-0.1,0.9-0.4,1.6-1,2.3c-0.6,0.7-1.4,1.2-2.4,1.5c-1.1,0.3-2.3,0.4-3.8,0.3
			C109.4,97.8,108.2,97.5,107.2,96.9z"/>
		<path d="M122.1,98c-1-0.6-1.8-1.5-2.3-2.5c-0.5-1-0.7-2.1-0.6-3.3l0.1-1.5c0.1-1.2,0.5-2.2,1.2-3.1c0.7-0.9,1.6-1.6,2.7-2.1
			c1.1-0.5,2.3-0.7,3.6-0.5c1.3,0.1,2.5,0.5,3.5,1.1c1,0.6,1.8,1.5,2.3,2.5c0.5,1,0.7,2.1,0.6,3.3l-0.1,1.5
			c-0.1,1.2-0.5,2.2-1.2,3.1c-0.7,0.9-1.6,1.6-2.7,2.1c-1.1,0.5-2.3,0.7-3.6,0.6C124.3,99,123.2,98.6,122.1,98z M131.5,93.3
			c0.4,0,0.6-0.1,0.7-0.3c0.1-0.1,0.2-0.3,0.2-0.5c0-0.2,0-0.4-0.1-0.6c-0.1-0.1-0.3-0.3-0.7-0.4c-0.3-0.1-0.8-0.2-1.5-0.2l-7.8-0.6
			c-0.6-0.1-1.1-0.1-1.5,0c-0.4,0-0.6,0.1-0.8,0.3c-0.1,0.1-0.2,0.3-0.2,0.5c0,0.2,0,0.4,0.1,0.6c0.1,0.1,0.4,0.3,0.7,0.4
			c0.4,0.1,0.8,0.2,1.5,0.2l7.8,0.6C130.7,93.4,131.2,93.4,131.5,93.3z"/>
		<path d="M134.6,85.6l0.6,0l-0.3,3.7c0.5-1,1.2-1.9,2.1-2.5c0.9-0.6,2-0.9,3.3-0.8c1,0.1,1.9,0.4,2.6,1c0.7,0.6,1.2,1.3,1.6,2.2
			c0.3,0.9,0.5,1.8,0.4,2.9l-0.7,8.5l-0.6,0l0.4-5.5c0-0.5,0-0.8-0.1-1.2s-0.4-0.6-0.7-0.8c-0.4-0.2-0.9-0.3-1.7-0.4l-4.1-0.3
			c-0.8-0.1-1.3,0-1.7,0.1c-0.4,0.1-0.7,0.3-0.8,0.6c-0.2,0.3-0.2,0.7-0.3,1.1l-0.4,5.5l-0.6,0L134.6,85.6z M144.4,90.4l0.3,0
			c0.3-0.7,0.7-1.3,1.2-1.8c0.5-0.6,1.1-1,1.9-1.3c0.7-0.3,1.5-0.5,2.4-0.4c1,0.1,1.9,0.4,2.6,1c0.7,0.6,1.3,1.3,1.6,2.2
			c0.3,0.9,0.5,1.8,0.4,2.8l-0.7,8.5l-0.6,0l0.4-5.5c0-0.5,0-0.8-0.1-1.2s-0.3-0.6-0.7-0.8c-0.4-0.2-1-0.3-1.7-0.4l-4.1-0.3
			c-0.8-0.1-1.3,0-1.7,0.1c-0.4,0.1-0.7,0.3-0.8,0.6c-0.2,0.3-0.2,0.7-0.3,1.1l-0.4,5.5l-0.6,0L144.4,90.4z"/>
		<path d="M158.5,100.9c-1-0.6-1.8-1.5-2.3-2.5c-0.5-1-0.7-2.1-0.6-3.3l0.1-1.5c0.1-1.2,0.5-2.2,1.2-3.1c0.7-0.9,1.6-1.6,2.7-2.1
			c1.1-0.5,2.3-0.7,3.6-0.5c1.4,0.1,2.6,0.5,3.6,1.2c1,0.7,1.7,1.5,2.2,2.5c0.5,1,0.7,2,0.6,3.1l-0.2,2.5L156,96.1l0.3-3.3l12.6,1
			c-0.1-0.2-0.2-0.4-0.4-0.6s-0.6-0.3-1.2-0.5c-0.6-0.1-1.5-0.2-2.6-0.3l-3.7-0.3c-1.3-0.1-2.2-0.1-2.9,0c-0.6,0.1-1.1,0.2-1.3,0.5
			s-0.4,0.7-0.4,1.2l-0.1,1.3c0,0.5,0,1,0.2,1.3s0.6,0.5,1.2,0.7c0.6,0.2,1.6,0.3,2.9,0.4l6.2,0.5c0.6,0.1,1,0,1.3-0.1
			c0.2-0.1,0.4-0.2,0.5-0.4l0.6,0c-0.3,0.8-0.8,1.6-1.4,2.3c-0.6,0.7-1.5,1.3-2.4,1.7c-1,0.4-2.1,0.5-3.3,0.4
			C160.7,102,159.6,101.6,158.5,100.9z"/>
	</g>
</g>
</svg>
