<?xml version="1.0" encoding="utf-8"?>
<!-- Generator: Adobe Illustrator 28.0.0, SVG Export Plug-In . SVG Version: 6.00 Build 0)  -->
<svg version="1.1" id="Layer_1" xmlns="http://www.w3.org/2000/svg" xmlns:xlink="http://www.w3.org/1999/xlink" x="0px" y="0px"
	 viewBox="0 0 254.9 190.7" style="enable-background:new 0 0 254.9 190.7;" xml:space="preserve">
<style type="text/css">
	.st0{fill:#FFFFFF;}
	.st1{fill:#FF00FF;}
	.st2{fill:#29AAFF;}
	.st3{fill:#FCEE21;}
	.st4{fill:#FF4800;}
</style>
<path class="st4" d="M175.6,156.1l-8.2,10.7c-3.3,4.4-9.6,5-13.8,1.5l-13.5-11.4c-3.8-3.2-9.5-3-13,0.6l-24,24.1
	c-6.1,6.1-16.5,1.7-16.4-6.9l0.3-31c0.1-6.9-7-11.6-13.3-8.9l-12.1,5.1c-7.4,3.1-15.2-3.7-12.9-11.5l0.5-1.7
	c1.9-6.7-3.7-13.1-10.6-12.1l-26.2,3.8c-9.9,1.4-15.1-11.3-7-17.2L28,84.7c5.6-4.1,5.1-12.6-0.9-16l-3.1-1.8
	c-7.6-4.4-5.8-15.8,2.8-17.7l13-2.8c5-1.1,8.3-5.9,7.4-11l-1.8-10.6c-1.3-7.8,6.8-13.8,13.8-10.1l18.1,9.3
	c5.9,3.1,13.1-0.7,13.9-7.4l0.2-1.9c1.1-9.5,14.1-11.7,18.2-3l6,12.6c2.4,5,8.5,7,13.3,4.3l8.4-4.6c5.3-2.9,11.9-0.3,13.8,5.5l0,0
	c2.2,7,11.2,9,16.2,3.5l8.7-9.5c7.7-8.5,21.1,1.3,15.4,11.2l0,0c-4.2,7.3,2.4,16.1,10.6,14.1l10.4-2.6c7.1-1.8,13.5,4.9,11.5,11.9
	l-1,3.4c-1.8,6.2,3,12.4,9.5,12.2l11.1-0.3c10.2-0.3,13.7,13.4,4.7,18.1l-17.3,9c-5.7,3-6.9,10.5-2.5,15.1l4,4.2
	c5.7,5.9,1.9,15.7-6.2,16.2l-3.5,0.2c-5.7,0.4-9.8,5.6-8.8,11.2l0.7,4.1c1.4,8.2-7.5,14.1-14.6,9.7l-11.9-7.5
	C184.1,151.1,178.6,152.1,175.6,156.1z"/>
<g>
	<g>
		<path d="M69.1,104.9c-2-1.1-3.6-2.5-4.8-4.3c-1.2-1.8-1.8-3.8-1.8-6.1l0-2.9c0-2.2,0.5-4.2,1.7-6c1.1-1.8,2.7-3.3,4.7-4.4
			c2-1.1,4.2-1.7,6.7-1.7c2.3,0,4.4,0.5,6.3,1.4c1.9,1,3.5,2.3,4.7,4c1.2,1.7,1.9,3.6,2.2,5.5v0l-1.1,0c-0.3-0.9-0.8-1.7-1.5-2.3
			c-0.7-0.6-1.6-1.1-2.9-1.5c-1.2-0.3-2.8-0.5-4.6-0.5l-6.3,0.1c-2,0-3.7,0.3-5,0.9c-1.4,0.6-2.3,1.3-3,2.2c-0.6,0.9-0.9,2-0.9,3.2
			l0,1.3c0,1.2,0.3,2.3,1,3.1c0.6,0.9,1.6,1.6,3,2.1c1.4,0.5,3,0.8,5,0.8l6.3-0.1c2.7,0,4.8-0.4,6.2-1.3c1.4-0.8,2.3-2,2.7-3.5
			l1.1,0c-0.1,2.1-0.8,4-2,5.8c-1.2,1.8-2.7,3.2-4.6,4.2c-1.9,1-4,1.6-6.4,1.6C73.3,106.5,71.1,106,69.1,104.9z"/>
		<path d="M119.1,106.1l-1.1,0l-0.1-7c-1.1,2.1-2.6,3.8-4.7,5.1c-2.1,1.3-4.5,2-7.2,2c-2.5,0-4.6-0.5-6.5-1.5
			c-1.8-1-3.3-2.3-4.2-4.1c-1-1.7-1.5-3.6-1.5-5.7l-0.1-15.6l1.1,0l0.1,13.2c0,1.4,0.3,2.6,0.9,3.6c0.6,1,1.5,1.8,2.8,2.3
			c1.3,0.5,3,0.8,5,0.8l5.6,0c2.1,0,3.7-0.3,5-0.9c1.3-0.5,2.2-1.3,2.8-2.3c0.6-1,0.8-2.2,0.8-3.6l-0.1-13.2l1.1,0L119.1,106.1z"/>
		<path d="M123,81.8l25.2-0.2l0.1,6.8l-25.2,0.2L123,81.8z M135,71.7l1.1,0l0.3,34.3l-1.1,0L135,71.7z"/>
		<path d="M158.8,104.2c-2-1-3.6-2.5-4.8-4.3c-1.2-1.8-1.7-3.9-1.8-6.1l0-2.8c0-2.2,0.5-4.3,1.7-6.1c1.1-1.9,2.7-3.3,4.7-4.4
			c2-1.1,4.2-1.6,6.7-1.6c2.6,0,5,0.5,6.9,1.6c2,1.1,3.5,2.6,4.6,4.4c1.1,1.8,1.6,3.7,1.6,5.8l0,3.7l-25.4,0.2l0-4.4l24.2-0.2v0
			c-0.2-1.1-0.6-2.1-1.3-2.9c-0.7-0.8-1.8-1.4-3.3-1.9c-1.5-0.5-3.3-0.7-5.5-0.7l-3.5,0c-2.5,0-4.4,0.3-5.9,0.9
			c-1.5,0.6-2.6,1.4-3.3,2.4c-0.7,1.1-1,2.3-1,3.7l0,2c0,1.5,0.4,2.7,1.1,3.8c0.7,1,1.8,1.8,3.3,2.4c1.5,0.5,3.5,0.8,6,0.8l5.1,0
			c2.5,0,4.4-0.4,5.7-1.1c1.3-0.7,2.2-1.7,2.7-3l1.1,0v0c-0.4,1.7-1.2,3.2-2.2,4.7c-1.1,1.5-2.5,2.7-4.3,3.6
			c-1.8,0.9-3.8,1.4-6.2,1.4C163.1,105.7,160.8,105.2,158.8,104.2z"/>
		<path d="M184.5,98l10-0.1l0.1,7.6l-10,0.1L184.5,98z M185.6,71.3l7.5-0.1l-3,23.2l-1.1,0L185.6,71.3z"/>
	</g>
</g>
</svg>
