<?xml version="1.0" encoding="utf-8"?>
<!-- Generator: Adobe Illustrator 28.0.0, SVG Export Plug-In . SVG Version: 6.00 Build 0)  -->
<svg version="1.1" id="Layer_1" xmlns="http://www.w3.org/2000/svg" xmlns:xlink="http://www.w3.org/1999/xlink" x="0px" y="0px"
	 viewBox="0 0 180 135" style="enable-background:new 0 0 180 135;" xml:space="preserve">
<style type="text/css">
	.st0{fill:#FFFFFF;}
	.st1{fill:#FF00FF;}
	.st2{fill:#29AAFF;}
	.st3{fill:#FCEE21;}
	.st4{fill:#FF4800;}
</style>
<g>
	<path class="st1" d="M124.6,110.6l-5.8,7.7c-2.4,3.1-6.9,3.6-9.9,1.1l-9.7-8.1c-2.7-2.3-6.8-2.1-9.3,0.4l-17.1,17.3
		c-4.3,4.4-11.8,1.3-11.7-4.8l0.1-22.1c0-4.9-5-8.3-9.5-6.3l-8.6,3.7c-5.3,2.3-10.9-2.6-9.3-8.1l0.3-1.2c1.3-4.8-2.7-9.4-7.6-8.6
		L7.9,84.3c-7.1,1.1-10.8-8-5.1-12.3l16.1-11.9c4-2.9,3.6-9-0.7-11.4L16,47.4c-5.4-3.1-4.2-11.3,1.9-12.6l9.3-2
		c3.6-0.8,5.9-4.3,5.3-7.9l-1.3-7.6c-1-5.6,4.8-9.9,9.8-7.3l13,6.6c4.3,2.2,9.4-0.6,9.9-5.3L64,9.9c0.8-6.8,10-8.4,13-2.2l4.3,9
		c1.7,3.6,6.1,4.9,9.5,3l6-3.3c3.8-2.1,8.5-0.3,9.9,3.9l0,0c1.6,5,8.1,6.4,11.6,2.5l6.2-6.9c5.5-6.1,15.1,0.9,11,8l0,0
		c-3,5.2,1.8,11.5,7.6,10l7.4-1.9c5.1-1.3,9.7,3.4,8.3,8.5l-0.7,2.4c-1.3,4.5,2.2,8.9,6.8,8.7l7.9-0.3c7.3-0.3,9.9,9.5,3.4,12.9
		L164,70.7c-4,2.1-4.9,7.6-1.7,10.8l2.9,3c4.1,4.2,1.4,11.2-4.4,11.6l-2.5,0.2c-4,0.3-7,4-6.3,8l0.5,3c1,5.8-5.3,10.1-10.4,7
		l-8.5-5.3C130.7,107.1,126.7,107.8,124.6,110.6z"/>
	<g>
		<g>
			<path d="M37.6,60.2c-2-1.3-3.5-2.6-4.3-4c-0.8-1.4-1.2-2.9-1.1-4.4l0.8,0.2c0,0.4,0.1,0.7,0.3,1c0.2,0.3,0.5,0.5,0.9,0.7
				c0.4,0.2,1,0.4,1.7,0.6L58.4,60c0.8,0.2,1.5,0.3,1.9,0.4c0.4,0,0.7,0,0.9,0c0.2-0.1,0.3-0.2,0.3-0.4c0.1-0.2,0-0.4-0.1-0.5
				c-0.1-0.1-0.4-0.3-0.8-0.4c-0.4-0.2-1-0.4-1.8-0.6L42.2,54c-3.3-0.9-5.5-2-6.6-3.3c-1.2-1.3-1.5-2.7-1.1-4.3
				c0.3-1.3,1.1-2.3,2.3-3.1c1.2-0.8,3-1.2,5.3-1.3s5.1,0.3,8.5,1.2c3.4,0.9,6,1.9,8,3.2c2,1.3,3.3,2.6,4.1,4c0.7,1.4,1.1,2.8,1,4.1
				l-0.8-0.2c-0.1-0.4-0.2-0.6-0.3-0.9c-0.1-0.2-0.4-0.4-0.8-0.6c-0.4-0.2-0.9-0.4-1.7-0.6l-21.7-5.6c-0.8-0.2-1.4-0.3-1.9-0.4
				c-0.5-0.1-0.7-0.1-0.9,0c-0.1,0.1-0.2,0.2-0.3,0.4c0,0.2,0,0.3,0.1,0.5c0.1,0.1,0.4,0.3,0.8,0.5c0.4,0.2,1,0.4,1.8,0.6l16.5,4.5
				c3.2,0.9,5.5,1.9,6.6,3.2c1.2,1.3,1.6,2.7,1.1,4.3c-0.3,1.3-1.1,2.3-2.3,3.1c-1.2,0.8-3,1.2-5.3,1.3c-2.4,0.1-5.3-0.4-8.9-1.3
				C42.3,62.5,39.7,61.5,37.6,60.2z"/>
			<path d="M69.3,48.1l0.8,0.2l-5.1,20l-0.8-0.2L69.3,48.1z M70.5,42.6l1.2,0.3l-1.1,4.4l-1.2-0.3L70.5,42.6z"/>
			<path d="M75.8,69.7c-2-1.5-3.4-3.1-4.3-4.9c-0.8-1.8-1-3.6-0.5-5.5l0.1-0.2c0.5-1.8,1.5-3.3,3.1-4.5c1.6-1.2,3.6-2,6.1-2.3
				c2.5-0.3,5.2-0.1,8.1,0.7c2.8,0.7,5.1,1.8,7,3.1c1.9,1.4,3.3,2.9,4.2,4.7c0.9,1.8,1.2,3.6,1.1,5.4L99.8,66
				c-0.1-0.2-0.2-0.4-0.4-0.6c-0.2-0.2-0.5-0.4-1-0.5c-0.5-0.2-1.2-0.4-2.2-0.6l-19.7-5.1c-1.1-0.3-2-0.5-2.7-0.5
				c-0.7-0.1-1.1,0-1.4,0.1c-0.3,0.1-0.5,0.4-0.5,0.7c-0.1,0.3,0,0.6,0.1,0.9c0.2,0.2,0.6,0.5,1.2,0.8c0.6,0.3,1.5,0.6,2.6,0.8
				l19.7,5.1c1.4,0.4,2.3,0.5,2.8,0.5c0.5,0,0.9-0.1,1.2-0.4l0.8,0.2c-0.7,1.7-1.9,3.1-3.5,4.2c-1.6,1.1-3.6,1.8-5.9,2.1
				c-2.3,0.3-4.9,0.1-7.7-0.7C80.2,72.2,77.8,71.1,75.8,69.7z"/>
			<path d="M107.9,52.2l0.8,0.2l-2.6,10l18.2,4.7l11.8-1.8l1.9,0.5l-24.2,3.9l19.4,16.2l-1.9-0.5l-9.9-8.2l-18-4.6l-1.4,5.3
				l-0.8-0.2L107.9,52.2z"/>
			<path d="M140.2,77.3l10.9,2.8l-2.5,9.7L137.7,87L140.2,77.3z M143,61.2l13.3,3.4l-10,13.1l-0.8-0.2L143,61.2z"/>
		</g>
	</g>
</g>
</svg>
