<?xml version="1.0" encoding="utf-8"?>
<!-- Generator: Adobe Illustrator 28.0.0, SVG Export Plug-In . SVG Version: 6.00 Build 0)  -->
<svg version="1.1" id="Layer_1" xmlns="http://www.w3.org/2000/svg" xmlns:xlink="http://www.w3.org/1999/xlink" x="0px" y="0px"
	 viewBox="0 0 233.5 175.4" style="enable-background:new 0 0 233.5 175.4;" xml:space="preserve">
<style type="text/css">
	.st0{fill:#FFFFFF;}
	.st1{fill:#FF00FF;}
	.st2{fill:#29AAFF;}
	.st3{fill:#FCEE21;}
	.st4{fill:#FF4800;}
</style>
<path class="st2" d="M171.3,127.4l-5,11.1c-2,4.5-7.4,6.4-11.8,4.1l-14.2-7.2c-4-2-8.9-0.7-11.3,3.2L113,164.6
	c-4.1,6.6-14.1,4.9-15.8-2.6l-6.1-27.2c-1.4-6.1-8.5-8.8-13.5-5.1l-9.5,7c-5.9,4.3-14.1-0.1-13.7-7.4l0.1-1.6
	c0.3-6.2-5.9-10.7-11.8-8.4l-22.2,8.7c-8.4,3.3-15.5-6.8-9.7-13.6l16.4-19.2c4-4.7,1.9-12.1-4-13.9l-3.1-0.9
	c-7.6-2.3-8.3-12.7-1.2-16l10.8-5.1c4.2-2,6.1-6.9,4.3-11.2l-3.8-8.9c-2.8-6.6,3.1-13.4,10-11.7l17.8,4.5c5.8,1.5,11.3-3.3,10.7-9.3
	l-0.2-1.7c-1-8.6,9.9-13.1,15.3-6.3l7.8,9.8c3.1,3.9,8.8,4.4,12.5,1l6.4-5.8c4-3.7,10.4-2.7,13.2,2l0,0c3.4,5.7,11.7,5.6,14.9-0.2
	l5.7-10.1c5-9,18.8-3.2,15.8,6.7l0,0c-2.2,7.3,5.4,13.6,12.2,10.2l8.6-4.4c5.9-3,12.9,1.5,12.5,8.1l-0.2,3.1
	c-0.3,5.8,5.2,10.3,10.8,8.7l9.6-2.6c8.8-2.4,14.8,8.9,7.8,14.9l-13.3,11.5c-4.4,3.8-3.9,10.7,1,13.8l4.4,2.8
	c6.2,4,4.9,13.3-2.1,15.5l-3,0.9c-4.9,1.5-7.4,6.9-5.4,11.6l1.5,3.5c2.9,6.9-3.7,13.9-10.8,11.5l-12-4.1
	C177.7,121.3,173.1,123.3,171.3,127.4z"/>
<g>
	<g>
		<path d="M54.9,84.3l0.9-0.2l5.1,10l10.5-1.8l1.3-11.1l5.8-1l5,10.1L94,88.5l1.5-11.2l0.9-0.1l-3,22.4l-5.8,1l-5-10.1l-10.4,1.8
			l-1.3,11.1l-5.8,1L54.9,84.3z"/>
		<path d="M106.1,96.2c-1.7-0.6-3.2-1.5-4.3-2.8c-1.2-1.3-1.9-2.8-2.2-4.6l-0.4-2.2c-0.3-1.8-0.1-3.4,0.5-5.1s1.7-3,3.1-4.1
			c1.4-1.1,3.1-1.8,5.1-2.2c2-0.3,3.8-0.2,5.5,0.3c1.7,0.6,3.2,1.5,4.3,2.8c1.2,1.3,1.9,2.8,2.2,4.6l0.4,2.2
			c0.3,1.8,0.1,3.4-0.5,5.1c-0.7,1.6-1.7,3-3.1,4.1c-1.4,1.1-3.1,1.8-5.1,2.2C109.7,96.8,107.8,96.7,106.1,96.2z M118.2,85.8
			c0.5-0.2,0.8-0.4,1-0.7c0.2-0.2,0.2-0.5,0.2-0.9s-0.2-0.6-0.4-0.8c-0.2-0.2-0.6-0.3-1.2-0.3c-0.5,0-1.3,0-2.3,0.2l-11.8,2
			c-1,0.2-1.7,0.3-2.2,0.6c-0.5,0.2-0.9,0.4-1,0.7c-0.2,0.2-0.2,0.5-0.2,0.9s0.2,0.6,0.4,0.8c0.2,0.2,0.6,0.3,1.2,0.3
			c0.6,0,1.3,0,2.3-0.2l11.8-2C116.9,86.2,117.7,86,118.2,85.8z"/>
		<path d="M119.6,73.2l0.9-0.2l5.1,10l10.5-1.8l1.3-11.1l5.8-1l5,10.1l10.5-1.8l1.5-11.2l0.9-0.1l-3,22.4l-5.8,1l-5-10.1l-10.4,1.8
			l-1.3,11.1l-5.8,1L119.6,73.2z"/>
		<path d="M161.1,60.1l10.2-1.8l-2,16.4l-0.8,0.1L161.1,60.1z M165.1,76.8l7.9-1.4l1.8,10.3l-7.9,1.4L165.1,76.8z"/>
	</g>
</g>
</svg>
