<?xml version="1.0" encoding="utf-8"?>
<!-- Generator: Adobe Illustrator 28.0.0, SVG Export Plug-In . SVG Version: 6.00 Build 0)  -->
<svg version="1.1" id="Layer_1" xmlns="http://www.w3.org/2000/svg" xmlns:xlink="http://www.w3.org/1999/xlink" x="0px" y="0px"
	 viewBox="0 0 216 176.4" style="enable-background:new 0 0 216 176.4;" xml:space="preserve">
<style type="text/css">
	.st0{fill:#FFFFFF;}
	.st1{fill:#FF00FF;}
	.st2{fill:#29AAFF;}
	.st3{fill:#FCEE21;}
	.st4{fill:#FF4800;}
</style>
<path class="st3" d="M151.8,137.5l-6.6,9.5c-2.7,3.9-8.1,4.7-11.8,1.8l-12-9.3c-3.4-2.6-8.3-2.2-11.2,1l-19.7,21.7
	c-5,5.5-14.1,2.1-14.4-5.3l-0.9-26.7c-0.2-5.9-6.4-9.7-11.8-7.2L53.1,128c-6.3,3-13.2-2.6-11.6-9.4l0.4-1.5c1.4-5.8-3.7-11.1-9.6-10
	l-22.5,4.3c-8.4,1.6-13.4-9.2-6.7-14.5l18.8-15.1c4.6-3.7,3.9-11-1.4-13.8l-2.7-1.4c-6.7-3.5-5.6-13.4,1.7-15.3l11.1-2.9
	c4.3-1.1,6.9-5.4,6-9.7l-2-9.1c-1.5-6.7,5.3-12.1,11.5-9.3l15.9,7.3c5.2,2.4,11.3-1.1,11.7-6.9l0.1-1.7c0.6-8.3,11.6-10.6,15.5-3.3
	l5.6,10.6c2.2,4.2,7.6,5.7,11.6,3.2l7-4.3c4.4-2.7,10.3-0.7,12.1,4.2l0,0c2.2,6,10,7.3,14.1,2.4l7.1-8.6c6.3-7.6,18.2,0.3,13.7,9.1
	l0,0c-3.3,6.5,2.7,13.8,9.7,11.7l8.9-2.6c6.1-1.8,11.8,3.6,10.4,9.8l-0.7,2.9c-1.3,5.4,3.1,10.6,8.7,10.1l9.5-0.7
	c8.7-0.7,12.4,11,4.8,15.4l-14.5,8.4c-4.8,2.8-5.5,9.3-1.5,13.1l3.6,3.4c5.1,4.8,2.2,13.4-4.7,14.2l-3,0.3c-4.9,0.5-8.2,5.2-7.1,10
	l0.8,3.5c1.5,7-6,12.5-12.2,8.9l-10.5-6C158.9,132.9,154.2,134,151.8,137.5z"/>
<g>
	<g>
		<path d="M54,99.4c-2.3-1.3-4-3.1-5.3-5.4c-1.3-2.3-1.9-4.8-1.8-7.6l0.1-4.7c0-2.8,0.7-5.3,2-7.5c1.3-2.2,3.1-4,5.4-5.2
			c2.3-1.3,4.9-1.9,7.8-1.8c2.8,0,5.4,0.7,7.5,2c2.2,1.3,3.9,3.1,5.1,5.3c1.2,2.2,1.9,4.6,2,7.2l-1.1,0C75.4,80.2,74.8,79,74,78
			c-0.9-1-2.1-1.8-3.6-2.4c-1.6-0.6-3.6-0.9-6.1-0.9l-4.2-0.1c-2.7,0-4.9,0.3-6.7,1c-1.8,0.7-3.1,1.7-4,3C48.5,79.8,48,81.3,48,83
			l0,2.2c0,1.7,0.4,3.2,1.2,4.5c0.8,1.3,2.1,2.3,3.9,3.1c1.8,0.8,4,1.2,6.6,1.2L64,94c2.5,0,4.5-0.2,6.1-0.7
			c1.6-0.5,2.9-1.3,3.8-2.4c0.9-1,1.5-2.3,1.8-3.8l1.1,0c-0.1,2.7-0.8,5.2-2.1,7.4c-1.3,2.2-3.1,3.9-5.3,5.2
			c-2.3,1.3-4.8,1.9-7.6,1.8C58.8,101.4,56.3,100.7,54,99.4z"/>
		<path d="M88.7,99.9c-2.3-1.3-4-3.1-5.2-5.4c-1.2-2.3-1.8-4.8-1.8-7.5l0.1-4.8c0-2.8,0.7-5.3,2-7.5c1.3-2.2,3.1-4,5.4-5.2
			s4.9-1.9,7.8-1.8c2.9,0,5.5,0.7,7.8,2.1c2.2,1.3,4,3.1,5.2,5.4c1.2,2.3,1.8,4.8,1.8,7.5l-0.1,4.8c0,2.8-0.7,5.3-2,7.5
			c-1.3,2.2-3.1,4-5.3,5.2c-2.3,1.3-4.9,1.9-7.8,1.8C93.6,101.9,91,101.2,88.7,99.9z M105.5,93.6c1.7-0.7,3-1.7,3.8-3
			c0.8-1.3,1.2-2.7,1.3-4.4l0-2.4c0-1.7-0.4-3.1-1.1-4.5c-0.8-1.3-2-2.3-3.7-3.1c-1.7-0.8-3.9-1.2-6.5-1.2L94.6,75
			c-2.7,0-4.9,0.3-6.6,1c-1.7,0.7-3,1.7-3.8,3c-0.8,1.3-1.3,2.7-1.3,4.4l0,2.4c0,1.7,0.4,3.2,1.2,4.5c0.8,1.3,2,2.3,3.8,3.1
			c1.7,0.8,3.9,1.2,6.6,1.2l4.7,0.1C101.6,94.7,103.8,94.4,105.5,93.6z"/>
		<path d="M123.6,100.5c-2.3-1.3-4-3.1-5.2-5.4c-1.2-2.3-1.8-4.8-1.8-7.5l0.1-4.8c0-2.8,0.7-5.3,2-7.5c1.3-2.2,3.1-4,5.4-5.2
			s4.9-1.9,7.8-1.8c2.9,0,5.5,0.7,7.8,2.1c2.2,1.3,4,3.1,5.2,5.4c1.2,2.3,1.8,4.8,1.8,7.5l-0.1,4.8c0,2.8-0.7,5.3-2,7.5
			c-1.3,2.2-3.1,4-5.3,5.2c-2.3,1.3-4.9,1.9-7.8,1.8C128.5,102.5,125.9,101.8,123.6,100.5z M140.4,94.2c1.7-0.7,3-1.7,3.8-3
			c0.8-1.3,1.2-2.7,1.3-4.4l0-2.4c0-1.7-0.4-3.1-1.1-4.5c-0.8-1.3-2-2.3-3.7-3.1c-1.7-0.8-3.9-1.2-6.5-1.2l-4.7-0.1
			c-2.7,0-4.9,0.3-6.6,1c-1.7,0.7-3,1.7-3.8,3c-0.8,1.3-1.3,2.7-1.3,4.4l0,2.4c0,1.7,0.4,3.2,1.2,4.5c0.8,1.3,2,2.3,3.8,3.1
			c1.7,0.8,3.9,1.2,6.6,1.2l4.7,0.1C136.5,95.2,138.7,94.9,140.4,94.2z"/>
		<path d="M151.9,68.5l1.1,0l-0.4,27.1l25.3,0.4l-0.1,7.2l-26.4-0.4L151.9,68.5z"/>
	</g>
</g>
</svg>
