<?xml version="1.0" encoding="UTF-8"?>
<svg id="Layer_1" data-name="Layer 1" xmlns="http://www.w3.org/2000/svg" viewBox="0 0 254.93 190.74">
  <defs>
    <style>
      .cls-1 {
        letter-spacing: -.08em;
      }

      .cls-2 {
        font-family: bb-bookB-regular, 'bb-book B';
        font-size: 46.5px;
      }

      .cls-3 {
        letter-spacing: 0em;
      }

      .cls-4 {
        fill: #29aaff;
      }

      .cls-4, .cls-5, .cls-6 {
        stroke-width: 0px;
      }

      .cls-5 {
        fill: #ff4800;
      }

      .cls-6 {
        fill: #fcee21;
      }
    </style>
  </defs>
  <path class="cls-5" d="m226.59,79.12l3.15-1.3c7.81-3.21,7.54-14.36-.41-17.2l-12.02-4.29c-4.66-1.66-7.17-6.71-5.69-11.43l3.1-9.91c2.27-7.26-4.73-13.98-11.89-11.43l-18.44,6.58c-6.06,2.16-12.41-2.39-12.31-8.82l.03-1.87c.14-9.25-11.91-12.91-16.94-5.16l-7.32,11.28c-2.9,4.46-8.96,5.55-13.23,2.38l-7.38-5.49c-4.66-3.47-11.34-1.81-13.83,3.44l-.02.03c-3.04,6.41-11.87,7.13-15.9,1.29l-7.06-10.21c-6.27-9.07-20.29-1.47-16.1,8.73h0c3.08,7.51-4.36,15.05-11.91,12.06l-9.62-3.81c-6.59-2.61-13.53,2.89-12.51,9.9l.49,3.32c.9,6.17-4.46,11.44-10.62,10.42l-10.51-1.74c-9.65-1.6-14.81,10.97-6.82,16.61l15.31,10.81c5.03,3.55,5.22,10.94.4,14.75l-4.39,3.47c-6.15,4.86-3.81,14.7,3.88,16.26l3.32.67c5.35,1.09,8.59,6.56,6.96,11.77l-1.2,3.86c-2.37,7.61,5.39,14.44,12.63,11.12l12.3-5.64c4.34-1.99,9.48-.34,11.84,3.81l6.42,11.26c2.61,4.58,8.53,6.04,12.97,3.19l14.31-9.16c4.05-2.59,9.4-1.64,12.31,2.19l19.8,26.1c5,6.59,15.47,3.77,16.48-4.44l3.64-29.57c.81-6.59,8.13-10.19,13.84-6.8l10.85,6.43c6.67,3.95,14.94-1.59,13.81-9.26l-.24-1.67c-.97-6.61,5.21-12.03,11.64-10.2l24.54,6.98c9.23,2.63,15.82-8.85,8.91-15.5l-19.44-18.69c-4.8-4.61-3.27-12.63,2.88-15.16Zm-30.43,3.26l-2.1.87c-4.1,1.69-5.12,7.03-1.92,10.11l12.96,12.46c4.61,4.43.22,12.09-5.94,10.33l-16.36-4.66c-4.29-1.22-8.4,2.39-7.76,6.8l.16,1.11c.75,5.11-4.76,8.81-9.21,6.17l-7.24-4.29c-3.81-2.26-8.69.14-9.23,4.53l-2.43,19.72c-.67,5.47-7.66,7.35-10.99,2.96l-13.2-17.4c-1.94-2.55-5.51-3.19-8.2-1.46l-9.54,6.11c-2.96,1.89-6.9.92-8.65-2.13l-4.28-7.51c-1.58-2.76-5-3.87-7.89-2.54l-8.2,3.76c-4.83,2.21-10-2.34-8.42-7.41l.8-2.57c1.08-3.47-1.08-7.12-4.64-7.85l-2.21-.45c-5.12-1.04-6.69-7.6-2.59-10.84l2.93-2.31c3.22-2.54,3.09-7.47-.26-9.84l-10.21-7.21c-5.33-3.76-1.89-12.14,4.55-11.08l7.01,1.16c4.1.68,7.68-2.83,7.08-6.95l-.32-2.21c-.68-4.67,3.94-8.34,8.34-6.6l6.41,2.54c5.03,1.99,10-3.03,7.94-8.04h0c-2.79-6.8,6.56-11.87,10.73-5.82l4.71,6.81c2.69,3.89,8.58,3.41,10.6-.86v-.02c1.67-3.5,6.12-4.61,9.23-2.3l4.92,3.66c2.85,2.12,6.89,1.39,8.82-1.58l4.88-7.52c3.36-5.17,11.39-2.73,11.29,3.44l-.02,1.25c-.07,4.29,4.17,7.32,8.21,5.88l12.29-4.39c4.77-1.7,9.44,2.78,7.93,7.62l-2.07,6.6c-.98,3.15.69,6.51,3.8,7.62l8.02,2.86c5.3,1.89,5.48,9.32.27,11.46Z"/>
  <path class="cls-4" d="m173.58,77.77l-5.34-1.91c-2.07-.74-3.19-2.98-2.53-5.08l1.38-4.4c1.01-3.22-2.1-6.21-5.28-5.08l-8.19,2.92c-2.69.96-5.51-1.06-5.47-3.92v-.83c.08-4.11-5.28-5.74-7.52-2.29l-3.25,5.01c-1.29,1.98-3.98,2.47-5.88,1.06l-3.28-2.44c-2.07-1.54-5.04-.8-6.14,1.53h0c-1.35,2.86-5.28,3.18-7.07.59l-3.14-4.54c-2.79-4.03-9.02-.65-7.16,3.88h0c1.37,3.34-1.94,6.69-5.3,5.36l-4.27-1.69c-2.93-1.16-6.01,1.28-5.56,4.4l.22,1.47c.4,2.74-1.98,5.09-4.72,4.63l-4.67-.77c-4.29-.71-6.58,4.87-3.03,7.38l6.8,4.81c2.23,1.58,2.32,4.86.18,6.56l-1.95,1.54c-2.73,2.16-1.69,6.53,1.72,7.23l1.48.3c2.38.48,3.82,2.91,3.09,5.23l-.53,1.72c-1.05,3.38,2.39,6.42,5.61,4.94l5.47-2.51c1.93-.88,4.21-.15,5.26,1.69l2.85,5c1.16,2.04,3.79,2.68,5.76,1.42l6.36-4.07c1.8-1.15,4.18-.73,5.47.97l8.8,11.6c2.22,2.93,6.88,1.67,7.33-1.97l1.62-13.14c.36-2.93,3.61-4.53,6.15-3.02l4.82,2.86c2.96,1.76,6.64-.71,6.14-4.12l-.11-.74c-.43-2.94,2.31-5.34,5.17-4.53l10.91,3.1c4.1,1.17,7.03-3.93,3.96-6.89l-8.64-8.31c-2.13-2.05-1.45-5.61,1.28-6.74l1.4-.58c3.47-1.43,3.35-6.38-.18-7.64Z"/>
  <path class="cls-6" d="m194.05,83.24l2.1-.87c5.2-2.14,5.03-9.57-.27-11.46l-8.02-2.86c-3.11-1.11-4.78-4.47-3.8-7.62l2.07-6.6c1.51-4.84-3.15-9.32-7.93-7.62l-12.29,4.39c-4.04,1.44-8.27-1.59-8.21-5.88l.02-1.25c.09-6.16-7.94-8.61-11.29-3.44l-4.88,7.52c-1.93,2.98-5.97,3.7-8.82,1.58l-4.92-3.66c-3.11-2.31-7.56-1.21-9.22,2.3v.02c-2.04,4.27-7.93,4.75-10.61.86l-4.71-6.81c-4.18-6.05-13.52-.98-10.73,5.82h0c2.06,5.01-2.91,10.03-7.94,8.04l-6.41-2.54c-4.39-1.74-9.02,1.93-8.34,6.6l.32,2.21c.6,4.12-2.98,7.63-7.08,6.95l-7.01-1.16c-6.44-1.07-9.87,7.31-4.55,11.08l10.21,7.21c3.35,2.37,3.48,7.29.26,9.84l-2.93,2.31c-4.1,3.24-2.54,9.8,2.59,10.84l2.21.45c3.57.72,5.72,4.37,4.64,7.85l-.8,2.57c-1.58,5.07,3.59,9.62,8.42,7.41l8.2-3.76c2.89-1.33,6.32-.22,7.89,2.54l4.28,7.51c1.74,3.05,5.68,4.02,8.65,2.13l9.54-6.11c2.7-1.73,6.27-1.09,8.2,1.46l13.2,17.4c3.33,4.39,10.31,2.51,10.99-2.96l2.43-19.72c.54-4.4,5.42-6.79,9.23-4.53l7.24,4.29c4.44,2.63,9.96-1.06,9.21-6.17l-.16-1.11c-.65-4.41,3.47-8.02,7.76-6.8l16.36,4.66c6.15,1.75,10.55-5.9,5.94-10.33l-12.96-12.46c-3.2-3.07-2.18-8.42,1.92-10.11Zm-20.29,2.17l-1.4.58c-2.73,1.13-3.41,4.69-1.28,6.74l8.64,8.31c3.07,2.96.14,8.06-3.96,6.89l-10.91-3.1c-2.86-.81-5.6,1.59-5.17,4.53l.11.74c.5,3.41-3.18,5.87-6.14,4.12l-4.82-2.86c-2.54-1.51-5.79.09-6.15,3.02l-1.62,13.14c-.45,3.65-5.1,4.9-7.33,1.97l-8.8-11.6c-1.29-1.7-3.67-2.12-5.47-.97l-6.36,4.07c-1.97,1.26-4.6.62-5.76-1.42l-2.85-5c-1.05-1.84-3.33-2.58-5.26-1.69l-5.47,2.51c-3.22,1.48-6.67-1.56-5.61-4.94l.53-1.72c.72-2.32-.72-4.75-3.09-5.23l-1.48-.3c-3.42-.69-4.46-5.06-1.72-7.23l1.95-1.54c2.15-1.7,2.06-4.98-.18-6.56l-6.8-4.81c-3.55-2.51-1.26-8.09,3.03-7.38l4.67.77c2.74.45,5.12-1.89,4.72-4.63l-.22-1.47c-.46-3.12,2.63-5.56,5.56-4.4l4.27,1.69c3.36,1.33,6.67-2.02,5.3-5.36h0c-1.86-4.53,4.37-7.91,7.16-3.88l3.14,4.54c1.79,2.59,5.72,2.27,7.07-.57h0c1.11-2.35,4.07-3.09,6.14-1.55l3.28,2.44c1.9,1.41,4.59.93,5.88-1.06l3.25-5.01c2.24-3.45,7.59-1.82,7.53,2.29v.83c-.06,2.86,2.77,4.88,5.46,3.92l8.19-2.92c3.18-1.14,6.29,1.85,5.28,5.08l-1.38,4.4c-.66,2.1.46,4.34,2.53,5.08l5.34,1.91c3.53,1.26,3.65,6.21.18,7.64Z"/>
  <text class="cls-2" transform="translate(45.08 103.2) rotate(4.12)"><tspan x="0" y="0">GRE</tspan><tspan class="cls-1" x="97.89" y="0">A</tspan><tspan class="cls-3" x="127.42" y="0">T!</tspan></text>
</svg>