<?xml version="1.0" encoding="utf-8"?>
<!-- Generator: Adobe Illustrator 28.0.0, SVG Export Plug-In . SVG Version: 6.00 Build 0)  -->
<svg version="1.1" id="Layer_1" xmlns="http://www.w3.org/2000/svg" xmlns:xlink="http://www.w3.org/1999/xlink" x="0px" y="0px"
	 viewBox="0 0 216 176.4" style="enable-background:new 0 0 216 176.4;" xml:space="preserve">
<style type="text/css">
	.st0{fill:#FFFFFF;}
	.st1{fill:#FF00FF;}
	.st2{fill:#29AAFF;}
	.st3{fill:#FCEE21;}
	.st4{fill:#FF4800;}
</style>
<path class="st3" d="M151.8,137.5l-6.6,9.5c-2.7,3.9-8.1,4.7-11.8,1.8l-12-9.3c-3.4-2.6-8.3-2.2-11.2,1l-19.7,21.7
	c-5,5.5-14.1,2.1-14.4-5.3l-0.9-26.7c-0.2-5.9-6.4-9.7-11.8-7.2L53.1,128c-6.3,3-13.2-2.6-11.6-9.4l0.4-1.5c1.4-5.8-3.7-11.1-9.6-10
	l-22.5,4.3c-8.4,1.6-13.4-9.2-6.7-14.5l18.8-15.1c4.6-3.7,3.9-11-1.4-13.8l-2.7-1.4c-6.7-3.5-5.6-13.4,1.7-15.3l11.1-2.9
	c4.3-1.1,6.9-5.4,6-9.7l-2-9.1c-1.5-6.7,5.3-12.1,11.5-9.3l15.9,7.3c5.2,2.4,11.3-1.1,11.7-6.9l0.1-1.7c0.6-8.3,11.6-10.6,15.5-3.3
	l5.6,10.6c2.2,4.2,7.6,5.7,11.6,3.2l7-4.3c4.4-2.7,10.3-0.7,12.1,4.2l0,0c2.2,6,10,7.3,14.1,2.4l7.1-8.6c6.3-7.6,18.2,0.3,13.7,9.1
	l0,0c-3.3,6.5,2.7,13.8,9.7,11.7l8.9-2.6c6.1-1.8,11.8,3.6,10.4,9.8l-0.7,2.9c-1.3,5.4,3.1,10.6,8.7,10.1l9.5-0.7
	c8.7-0.7,12.4,11,4.8,15.4l-14.5,8.4c-4.8,2.8-5.5,9.3-1.5,13.1l3.6,3.4c5.1,4.8,2.2,13.4-4.7,14.2l-3,0.3c-4.9,0.5-8.2,5.2-7.1,10
	l0.8,3.5c1.5,7-6,12.5-12.2,8.9l-10.5-6C158.9,132.9,154.2,134,151.8,137.5z"/>
<g>
	<g>
		<path d="M40.5,80.7l0.6,0L41,84.4c0.4-1.1,1.1-1.9,1.9-2.6c0.9-0.7,1.9-1,3.2-1c1,0,1.9,0.3,2.7,0.8c0.8,0.5,1.3,1.2,1.7,2.1
			c0.4,0.9,0.6,1.8,0.6,2.8l-0.1,8.6l-0.6,0l0.1-5.5c0-0.5-0.1-0.9-0.2-1.2c-0.1-0.3-0.4-0.5-0.8-0.7c-0.4-0.2-1-0.3-1.7-0.3
			l-4.2-0.1c-0.8,0-1.3,0.1-1.7,0.2c-0.4,0.2-0.7,0.4-0.8,0.7C41,88.6,41,89,41,89.5L40.9,95l-0.6,0L40.5,80.7z M50.7,84.8l0.3,0
			c0.3-0.7,0.6-1.3,1.1-1.9s1.1-1.1,1.8-1.5c0.7-0.4,1.5-0.6,2.4-0.5c1,0,1.9,0.3,2.7,0.8c0.8,0.5,1.4,1.3,1.8,2.1
			c0.4,0.9,0.6,1.8,0.6,2.8l-0.1,8.6l-0.6,0l0.1-5.5c0-0.5,0-0.9-0.2-1.2c-0.1-0.3-0.4-0.5-0.8-0.7c-0.4-0.2-1-0.3-1.8-0.3l-4.2-0.1
			c-0.8,0-1.3,0.1-1.7,0.2c-0.4,0.2-0.7,0.4-0.8,0.7c-0.1,0.3-0.2,0.7-0.2,1.2l-0.1,5.5l-0.6,0L50.7,84.8z"/>
		<path d="M65.2,94.8c-1-0.4-1.7-0.9-2.1-1.6c-0.5-0.7-0.7-1.4-0.7-2.3l0-0.3c0-1.1,0.4-2,1.2-2.7s2-1,3.7-1.1l8.6-0.3l0,2.8
			l-10.9,0.4c-0.5,0-0.9,0.1-1.2,0.1c-0.3,0.1-0.5,0.2-0.6,0.3s-0.1,0.2-0.1,0.4l0,0c0,0.1,0,0.2,0.1,0.3c0.1,0.1,0.2,0.1,0.4,0.2
			c0.2,0.1,0.4,0.1,0.7,0.1l7.8,0.1c1,0,1.8,0,2.3-0.2s0.9-0.3,1.1-0.6c0.2-0.3,0.3-0.7,0.3-1.2l0-1.5c0-0.5-0.1-0.9-0.2-1.2
			c-0.1-0.3-0.4-0.4-0.9-0.6c-0.5-0.1-1.3-0.2-2.4-0.2l-6.8-0.1c-0.5,0-0.8,0-1.1,0.1c-0.3,0.1-0.5,0.2-0.6,0.3
			c-0.1,0.1-0.2,0.3-0.3,0.5l-0.6,0c0.2-1,0.6-2,1.2-2.7s1.4-1.4,2.3-1.9s2.1-0.7,3.3-0.6c1.5,0,2.8,0.3,3.7,1
			c1,0.6,1.7,1.4,2.2,2.3c0.5,1,0.7,1.9,0.7,3L76,95.5l-0.6,0l0.1-3.7c-0.6,1.1-1.4,2-2.5,2.7c-1.1,0.7-2.5,1-4.2,1
			C67.4,95.4,66.2,95.2,65.2,94.8z"/>
		<path d="M77.3,81.2l0.6,0l-0.1,3.7c0.6-1.1,1.4-2,2.6-2.6c1.1-0.7,2.4-1,3.8-1c1.3,0,2.5,0.3,3.4,0.9c1,0.6,1.7,1.3,2.2,2.2
			c0.5,0.9,0.8,1.9,0.7,3l0,3.1l-0.6,0l0-0.2c0-0.5,0-1-0.2-1.3c-0.1-0.3-0.4-0.6-0.8-0.7c-0.4-0.2-1-0.3-1.8-0.3l-6.7-0.1
			c-0.7,0-1.3,0.1-1.7,0.2c-0.4,0.2-0.7,0.4-0.8,0.7s-0.2,0.7-0.2,1.2l-0.1,5.5l-0.6,0L77.3,81.2z"/>
		<path d="M91.2,81.4l0.6,0l2.9,7l8.9,0.1l3.2-6.9l0.6,0l-6.4,14.2l-3.8-0.1L91.2,81.4z"/>
		<path d="M111.4,95.2c-1.1-0.6-1.9-1.4-2.5-2.4c-0.6-1-0.9-2.1-0.9-3.2l0-1.5c0-1.2,0.3-2.3,1-3.2c0.6-1,1.5-1.7,2.5-2.3
			c1.1-0.5,2.3-0.8,3.6-0.8c1.4,0,2.6,0.3,3.7,0.9s1.8,1.4,2.4,2.4c0.5,1,0.8,2,0.8,3.1l0,2.5l-13.5-0.2l0.1-3.3l12.7,0.2
			c-0.1-0.2-0.3-0.4-0.5-0.6c-0.2-0.2-0.6-0.3-1.2-0.4c-0.6-0.1-1.5-0.2-2.7-0.2l-3.7-0.1c-1.3,0-2.3,0-2.9,0.2
			c-0.6,0.1-1.1,0.3-1.3,0.6s-0.3,0.7-0.4,1.2l0,1.3c0,0.6,0.1,1,0.3,1.3s0.6,0.5,1.3,0.6c0.6,0.1,1.6,0.2,2.9,0.2l6.3,0.1
			c0.6,0,1.1,0,1.3-0.1c0.2-0.1,0.4-0.2,0.5-0.4l0.6,0c-0.2,0.9-0.7,1.7-1.3,2.4c-0.6,0.8-1.4,1.4-2.3,1.8c-1,0.4-2,0.7-3.3,0.6
			C113.7,96.1,112.5,95.8,111.4,95.2z"/>
		<path d="M123.2,78l0.6,0l-0.3,18.2l-0.6,0L123.2,78z"/>
		<path d="M127.8,95.4c-1.1-0.6-1.9-1.4-2.5-2.4c-0.6-1-0.9-2.1-0.9-3.2l0-1.5c0-1.2,0.3-2.3,1-3.2c0.6-1,1.5-1.7,2.5-2.3
			c1.1-0.5,2.3-0.8,3.6-0.8c1.3,0,2.5,0.3,3.5,0.9c1,0.6,1.9,1.4,2.5,2.4c0.6,1,0.9,2.1,0.9,3.2l0,1.5c0,1.2-0.3,2.3-1,3.2
			c-0.6,1-1.5,1.7-2.5,2.3c-1.1,0.5-2.3,0.8-3.6,0.8C130.1,96.3,128.9,96,127.8,95.4z M136.9,90.1c0.4-0.1,0.6-0.2,0.7-0.3
			c0.1-0.1,0.2-0.3,0.2-0.5c0-0.2-0.1-0.4-0.2-0.5c-0.1-0.1-0.4-0.3-0.7-0.3s-0.9-0.1-1.5-0.1l-7.9-0.1c-0.6,0-1.1,0-1.5,0.1
			c-0.4,0.1-0.6,0.2-0.7,0.3c-0.1,0.1-0.2,0.3-0.2,0.5c0,0.2,0.1,0.4,0.2,0.5c0.1,0.1,0.4,0.3,0.7,0.3c0.4,0.1,0.9,0.1,1.5,0.1
			l7.9,0.1C136.1,90.2,136.6,90.2,136.9,90.1z"/>
		<path d="M152.7,96.7l-0.6,0l0.1-3.7c-0.6,1.1-1.4,2-2.6,2.7c-1.1,0.7-2.4,1-3.9,1c-1.3,0-2.5-0.3-3.4-0.9c-1-0.6-1.7-1.3-2.2-2.2
			c-0.5-0.9-0.8-1.9-0.7-3l0.1-8.3l0.6,0l-0.1,5.5c0,0.5,0.1,0.9,0.2,1.1c0.1,0.3,0.4,0.5,0.8,0.7c0.4,0.2,1,0.3,1.7,0.3l6.7,0.1
			c0.7,0,1.3-0.1,1.7-0.2c0.4-0.2,0.7-0.4,0.8-0.7c0.1-0.3,0.2-0.7,0.2-1.1l0.1-5.5l0.6,0L152.7,96.7z"/>
		<path d="M157.2,96c-1.1-0.5-1.9-1.1-2.5-2c-0.6-0.8-0.9-1.8-1-2.9l0.6,0c0.1,0.2,0.2,0.4,0.3,0.6c0.1,0.1,0.3,0.3,0.6,0.4
			c0.3,0.1,0.7,0.1,1.2,0.1l9.4,0.1c0.5,0,0.9,0,1.1,0c0.3,0,0.4-0.1,0.5-0.2c0.1-0.1,0.1-0.2,0.1-0.3c0-0.1,0-0.3-0.1-0.4
			c-0.1-0.1-0.3-0.2-0.6-0.2c-0.3,0-0.7-0.1-1.2-0.1l-6.7-0.3c-1.7-0.1-2.9-0.4-3.6-1c-0.7-0.6-1.1-1.4-1.1-2.6l0-0.3
			c0-0.8,0.3-1.6,0.8-2.3c0.5-0.7,1.3-1.2,2.3-1.6c1-0.4,2.2-0.6,3.7-0.6c1.5,0,2.8,0.3,3.8,0.8c1,0.5,1.8,1.2,2.3,2
			c0.5,0.8,0.8,1.7,0.9,2.7l-0.6,0c-0.1-0.2-0.2-0.4-0.3-0.5c-0.1-0.1-0.3-0.2-0.5-0.3c-0.2-0.1-0.6-0.1-1.1-0.1l-9.1-0.1
			c-0.5,0-0.8,0-1.1,0c-0.3,0-0.4,0.1-0.5,0.1c-0.1,0.1-0.1,0.2-0.1,0.3c0,0.1,0,0.2,0.1,0.3s0.3,0.2,0.6,0.2
			c0.3,0.1,0.7,0.1,1.2,0.2l6.7,0.3c1.7,0.1,2.9,0.4,3.6,1c0.7,0.6,1.1,1.5,1.1,2.6l0,0.3c0,0.9-0.3,1.7-0.8,2.4
			c-0.5,0.7-1.3,1.2-2.4,1.6c-1.1,0.4-2.3,0.6-3.8,0.6C159.6,96.8,158.3,96.5,157.2,96z"/>
		<path d="M169.2,78.7l6.9,0.1l-3.3,10.4l-0.5,0L169.2,78.7z M169.7,90l5.3,0.1L175,97l-5.3-0.1L169.7,90z"/>
	</g>
</g>
</svg>
