<?xml version="1.0" encoding="utf-8"?>
<!-- Generator: Adobe Illustrator 28.0.0, SVG Export Plug-In . SVG Version: 6.00 Build 0)  -->
<svg version="1.1" id="Layer_1" xmlns="http://www.w3.org/2000/svg" xmlns:xlink="http://www.w3.org/1999/xlink" x="0px" y="0px"
	 viewBox="0 0 220.5 165.3" style="enable-background:new 0 0 220.5 165.3;" xml:space="preserve">
<style type="text/css">
	.st0{fill:#FFE600;}
	.st1{fill:#FF00FF;}
	.st2{fill:#29AAFF;}
	.st3{font-family:'bb-bookB-regular';}
	.st4{font-size:48.6123px;}
	.st5{fill:#FF4800;}
	.st6{fill:#FCEE21;}
	.st7{fill:#FFFFFF;}
</style>
<path class="st2" d="M164.8,122.4l-5,11.1c-2,4.5-7.4,6.4-11.8,4.1l-14.2-7.2c-4-2-8.9-0.7-11.3,3.2l-16.1,26.1
	c-4.1,6.6-14.1,4.9-15.8-2.6l-6.1-27.2c-1.4-6.1-8.5-8.8-13.5-5.1l-9.5,7c-5.9,4.3-14.1-0.1-13.7-7.4l0.1-1.6
	c0.3-6.2-5.9-10.7-11.8-8.4l-22.2,8.7c-8.4,3.3-15.5-6.8-9.7-13.6l16.4-19.2c4-4.7,1.9-12.1-4-13.9l-3.1-0.9
	C6.1,73,5.4,62.6,12.5,59.3l10.8-5.1c4.2-2,6.1-6.9,4.3-11.2l-3.8-8.9c-2.8-6.6,3.1-13.4,10-11.7l17.8,4.5
	c5.8,1.5,11.3-3.3,10.7-9.3l-0.2-1.7c-1-8.6,9.9-13.1,15.3-6.3l7.8,9.8c3.1,3.9,8.8,4.4,12.5,1l6.4-5.8c4-3.7,10.4-2.7,13.2,2l0,0
	c3.4,5.7,11.7,5.6,14.9-0.2l5.7-10.1c5-9,18.8-3.2,15.8,6.7l0,0c-2.2,7.3,5.4,13.6,12.2,10.2l8.6-4.4c5.9-3,12.9,1.5,12.5,8.1
	l-0.2,3.1c-0.3,5.8,5.2,10.3,10.8,8.7l9.6-2.6c8.8-2.4,14.8,8.9,7.8,14.9l-13.3,11.5c-4.4,3.8-3.9,10.7,1,13.8l4.4,2.8
	c6.2,4,4.9,13.3-2.1,15.5l-3,0.9c-4.9,1.5-7.4,6.9-5.4,11.6l1.5,3.5c2.9,6.9-3.7,13.9-10.8,11.5l-12-4.1
	C171.2,116.3,166.6,118.3,164.8,122.4z"/>
<text transform="matrix(0.9856 -0.169 0.169 0.9856 55.2825 104.6908)" class="st3 st4">wow!</text>
</svg>
