<?xml version="1.0" encoding="utf-8"?>
<!-- Generator: Adobe Illustrator 28.0.0, SVG Export Plug-In . SVG Version: 6.00 Build 0)  -->
<svg version="1.1" id="Layer_1" xmlns="http://www.w3.org/2000/svg" xmlns:xlink="http://www.w3.org/1999/xlink" x="0px" y="0px"
	 viewBox="0 0 218.6 185.7" style="enable-background:new 0 0 218.6 185.7;" xml:space="preserve">
<style type="text/css">
	.st0{fill:#FFE600;}
	.st1{fill:#FF00FF;}
	.st2{fill:#FFFFFF;}
	.st3{font-family:'bb-bookB-condensed';}
	.st4{font-size:44px;}
	.st5{fill:#29AAFF;}
	.st6{fill:#FF4800;}
	.st7{fill:#FCEE21;}
</style>
<path d="M179.3,121.7l-2,12.8c-0.8,5.2-5.8,8.7-11,7.6l-16.6-3.5c-4.7-1-9.4,1.8-10.7,6.4l-9.2,31.4c-2.3,7.9-13.1,9-17,1.7
	L98.9,152c-3.1-5.9-11.2-6.6-15.4-1.4l-7.8,9.9c-4.8,6.1-14.5,3.8-16.2-3.7l-0.4-1.6c-1.5-6.5-9.2-9.4-14.5-5.4l-20.4,15.3
	c-7.7,5.7-17.9-2.6-13.8-11.3l11.5-24.4c2.8-6-1.4-13-8.1-13.1l-3.4-0.1c-8.4-0.2-12.2-10.7-5.7-16.2l9.7-8.3
	c3.8-3.2,4.3-8.8,1.2-12.7l-6.4-8.1c-4.7-6-0.6-14.8,7-14.9l19.6-0.4c6.4-0.1,10.7-6.7,8.4-12.6l-0.7-1.7c-3.4-8.6,6.5-16.3,14-10.9
	L68.2,38c4.3,3.1,10.4,2,13.2-2.5l4.9-7.8c3.1-4.9,9.9-5.7,14.1-1.7l0,0c5.1,4.9,13.6,2.4,15.3-4.5l3-12.1
	c2.6-10.7,18.4-8.6,18.2,2.4v0c-0.2,8.1,9.4,12.5,15.4,7l7.6-7c5.2-4.8,13.7-2.1,15.2,4.8l0.7,3.3c1.4,6.1,8.2,9.1,13.6,6l9.2-5.4
	c8.4-4.9,17.7,5,12.3,13.1l-10.4,15.6c-3.4,5.1-1,12.1,4.9,13.9l5.3,1.7c7.5,2.3,8.8,12.4,2.2,16.6l-2.9,1.8
	c-4.6,2.9-5.7,9.2-2.3,13.5l2.5,3.2c4.9,6.3,0.1,15.4-7.8,14.9l-13.5-0.9C184.3,113.6,180,117,179.3,121.7z"/>
<text transform="matrix(0.8744 -0.4852 0.4852 0.8744 73.7961 132.0263)" class="st2 st3 st4">LOVE IT</text>
</svg>
