<?xml version="1.0" encoding="utf-8"?>
<!-- Generator: Adobe Illustrator 28.0.0, SVG Export Plug-In . SVG Version: 6.00 Build 0)  -->
<svg version="1.1" id="Layer_1" xmlns="http://www.w3.org/2000/svg" xmlns:xlink="http://www.w3.org/1999/xlink" x="0px" y="0px"
	 viewBox="0 0 254.9 181.8" style="enable-background:new 0 0 254.9 181.8;" xml:space="preserve">
<style type="text/css">
	.st0{fill:#FFE600;}
	.st1{fill:#FF00FF;}
	.st2{fill:#29AAFF;}
	.st3{fill:#FFFFFF;}
	.st4{font-family:'bb-bookB-regular';}
	.st5{font-size:29.4847px;}
	.st6{fill:#FF4800;}
	.st7{fill:#FCEE21;}
</style>
<g>
	<path d="M179.3,147.5l-7.6,11.2c-3.1,4.6-9.4,5.6-13.8,2.3l-14.2-10.7c-4-3-9.7-2.5-13,1.3l-22.8,25.7c-5.7,6.5-16.5,2.7-16.9-6
		l-1.4-31.2c-0.3-7-7.7-11.3-13.9-8.2l-11.8,5.8c-7.3,3.6-15.5-2.9-13.7-10.8l0.4-1.7c1.5-6.8-4.5-13-11.3-11.6l-26.2,5.3
		c-9.8,2-15.8-10.5-8.1-16.9l21.8-18c5.4-4.4,4.4-12.9-1.8-16.1l-3.2-1.6c-7.9-4-6.7-15.6,1.8-17.9l12.9-3.5c5-1.4,8-6.4,6.9-11.5
		L41,23c-1.8-7.8,6.1-14.2,13.3-11L73,20.4c6.1,2.7,13.1-1.5,13.6-8.2l0.1-2c0.6-9.7,13.5-12.5,18.1-4l6.7,12.4
		c2.7,4.9,8.9,6.5,13.6,3.5l8.1-5.1c5.1-3.2,12-1,14.2,4.7l0,0c2.7,6.9,11.8,8.4,16.5,2.6l8.2-10.1c7.3-9,21.3,0.1,16.1,10.4l0,0
		c-3.8,7.6,3.3,16.1,11.5,13.6l10.3-3.2c7.1-2.2,13.9,4.1,12.3,11.3l-0.8,3.4c-1.4,6.4,3.7,12.3,10.2,11.7l11.1-1
		c10.2-0.9,14.6,12.6,5.8,17.9l-16.9,10.1c-5.5,3.3-6.3,11-1.6,15.4l4.3,4c6,5.6,2.8,15.7-5.4,16.7l-3.5,0.4
		c-5.7,0.7-9.5,6.2-8.2,11.7l0.9,4.1c1.9,8.1-6.8,14.6-14.1,10.6l-12.4-6.9C187.6,142.1,182.1,143.4,179.3,147.5z"/>
	<text transform="matrix(0.9979 -6.519019e-02 6.519019e-02 0.9979 53.4148 101.0407)" class="st3 st4 st5">wonderful</text>
</g>
</svg>
