<?xml version="1.0" encoding="utf-8"?>
<!-- Generator: Adobe Illustrator 28.0.0, SVG Export Plug-In . SVG Version: 6.00 Build 0)  -->
<svg version="1.1" id="Layer_1" xmlns="http://www.w3.org/2000/svg" xmlns:xlink="http://www.w3.org/1999/xlink" x="0px" y="0px"
	 viewBox="0 0 220.3 157.3" style="enable-background:new 0 0 220.3 157.3;" xml:space="preserve">
<style type="text/css">
	.st0{fill:#FFE600;}
	.st1{font-family:'bb-bookB-condensed';}
	.st2{font-size:41.9059px;}
	.st3{fill:#FF00FF;}
	.st4{fill:#29AAFF;}
	.st5{fill:#FF4800;}
	.st6{fill:#FCEE21;}
	.st7{fill:#FFFFFF;}
</style>
<g>
	<path class="st0" d="M153.9,127.9l-6.6,9.5c-2.7,3.9-8.1,4.7-11.8,1.8l-12-9.3c-3.4-2.6-8.3-2.2-11.2,1l-19.7,21.7
		c-5,5.5-14.1,2.1-14.4-5.3l-0.9-26.7c-0.2-5.9-6.4-9.7-11.8-7.2l-10.2,4.9c-6.3,3-13.2-2.6-11.6-9.4l0.4-1.5
		c1.4-5.8-3.7-11.1-9.6-10L12,101.9c-8.4,1.6-13.4-9.2-6.7-14.5l18.8-15.1c4.6-3.7,3.9-11-1.4-13.8L20,57
		c-6.7-3.5-5.6-13.4,1.7-15.3l11.1-2.9c4.3-1.1,6.9-5.4,6-9.7l-2-9.1c-1.5-6.7,5.3-12.1,11.5-9.3l15.9,7.3
		c5.2,2.4,11.3-1.1,11.7-6.9l0.1-1.7c0.6-8.3,11.6-10.6,15.5-3.3l5.6,10.6c2.2,4.2,7.6,5.7,11.6,3.2l7-4.3
		c4.4-2.7,10.3-0.7,12.1,4.2l0,0c2.2,6,10,7.3,14.1,2.4l7.1-8.6c6.3-7.6,18.2,0.3,13.7,9.1l0,0c-3.3,6.5,2.7,13.8,9.7,11.7l8.9-2.6
		c6.1-1.8,11.8,3.6,10.4,9.8l-0.7,2.9c-1.3,5.4,3.1,10.6,8.7,10.1l9.5-0.7c8.7-0.7,12.4,11,4.8,15.4l-14.5,8.4
		c-4.8,2.8-5.5,9.3-1.5,13.1l3.6,3.4c5.1,4.8,2.2,13.4-4.7,14.2l-3,0.3c-4.9,0.5-8.2,5.2-7.1,10l0.8,3.5c1.5,7-6,12.5-12.2,8.9
		l-10.5-6C161.1,123.3,156.4,124.4,153.9,127.9z"/>
	<text transform="matrix(1 -3.233388e-03 3.233388e-03 1 47.8824 91.2747)" class="st1 st2">marvelous!</text>
</g>
</svg>
