<?xml version="1.0" encoding="utf-8"?>
<!-- Generator: Adobe Illustrator 28.0.0, SVG Export Plug-In . SVG Version: 6.00 Build 0)  -->
<svg version="1.1" id="Layer_1" xmlns="http://www.w3.org/2000/svg" xmlns:xlink="http://www.w3.org/1999/xlink" x="0px" y="0px"
	 viewBox="0 0 220.3 157.3" style="enable-background:new 0 0 220.3 157.3;" xml:space="preserve">
<style type="text/css">
	.st0{fill:#FFE600;}
	.st1{font-family:'bb-bookB-condensed';}
	.st2{font-size:50.9186px;}
	.st3{fill:#FF00FF;}
	.st4{fill:#29AAFF;}
	.st5{fill:#FF4800;}
	.st6{fill:#FCEE21;}
	.st7{fill:#FFFFFF;}
</style>
<g>
	<path class="st0" d="M150.2,131.9l-7.2,9c-2.9,3.7-8.3,4.1-11.8,1l-11.3-10c-3.2-2.8-8-2.7-11.1,0.2l-21,20.2
		c-5.3,5.1-14.1,1.2-13.9-6.2l0.8-26.5c0.2-5.9-5.7-10.1-11.2-7.9l-10.4,4.2c-6.4,2.6-12.9-3.4-10.9-10l0.4-1.4
		c1.8-5.7-2.9-11.3-8.8-10.5l-22.5,2.8c-8.5,1-12.7-9.9-5.7-14.8l19.6-13.8c4.8-3.4,4.6-10.7-0.5-13.7L22.2,53
		c-6.4-3.9-4.7-13.6,2.7-15.1l11.2-2.1c4.3-0.8,7.2-4.9,6.6-9.3l-1.4-9.1c-1-6.7,6.1-11.6,12-8.4l15.3,8.3c5,2.7,11.2-0.4,12-6.1
		l0.2-1.6C82,1.4,93.1-0.1,96.4,7.4l4.9,10.9c1.9,4.3,7.1,6.1,11.3,3.9l7.2-3.8c4.6-2.4,10.2,0,11.7,4.9l0,0c1.8,6,9.5,7.9,13.8,3.3
		l7.6-8c6.7-7.1,18,1.5,13,9.9l0,0c-3.7,6.2,1.8,13.8,8.8,12.2l9-2c6.1-1.4,11.5,4.4,9.6,10.4l-0.9,2.8c-1.6,5.3,2.4,10.7,7.9,10.6
		l9.5-0.1c8.7-0.1,11.5,11.7,3.7,15.5l-14.9,7.4c-4.9,2.4-6.1,8.9-2.4,12.9l3.4,3.7c4.7,5.1,1.3,13.4-5.6,13.8l-3,0.1
		c-4.8,0.2-8.4,4.6-7.7,9.4l0.5,3.6c1,7-6.7,12-12.6,8l-10-6.6C157.6,127.8,152.9,128.6,150.2,131.9z"/>
	<g>
		<text transform="matrix(0.9967 8.079010e-02 -8.079010e-02 0.9967 46.9585 89.7058)" class="st1 st2">awesome</text>
	</g>
</g>
</svg>
