<?xml version="1.0" encoding="utf-8"?>
<!-- Generator: Adobe Illustrator 28.0.0, SVG Export Plug-In . SVG Version: 6.00 Build 0)  -->
<svg version="1.1" id="Layer_1" xmlns="http://www.w3.org/2000/svg" xmlns:xlink="http://www.w3.org/1999/xlink" x="0px" y="0px"
	 viewBox="0 0 182.8 129.6" style="enable-background:new 0 0 182.8 129.6;" xml:space="preserve">
<style type="text/css">
	.st0{fill:#FFE600;}
	.st1{fill:#FF00FF;}
	.st2{fill:#29AAFF;}
	.st3{fill:#FF4800;}
	.st4{fill:#FCEE21;}
	.st5{fill:#FFFFFF;}
	.st6{font-family:'bb-bookB-regular';}
	.st7{font-size:41.3511px;}
	.st8{letter-spacing:3;}
</style>
<g>
	<path class="st1" d="M126,108l-5.8,7.7c-2.4,3.1-6.9,3.6-9.9,1.1l-9.7-8.1c-2.7-2.3-6.8-2.1-9.3,0.4l-17.1,17.3
		c-4.3,4.4-11.8,1.3-11.7-4.8l0.1-22.1c0-4.9-5-8.3-9.5-6.3l-8.6,3.7c-5.3,2.3-10.9-2.6-9.3-8.1l0.3-1.2c1.3-4.8-2.7-9.4-7.6-8.6
		L9.3,81.7c-7.1,1.1-10.8-8-5.1-12.3l16.1-11.9c4-2.9,3.6-9-0.7-11.4l-2.2-1.3c-5.4-3.1-4.2-11.3,1.9-12.6l9.3-2
		c3.6-0.8,5.9-4.3,5.3-7.9l-1.3-7.6c-1-5.6,4.8-9.9,9.8-7.3l13,6.6c4.3,2.2,9.4-0.6,9.9-5.3l0.1-1.4c0.8-6.8,10-8.4,13-2.2l4.3,9
		c1.7,3.6,6.1,4.9,9.5,3l6-3.3c3.8-2.1,8.5-0.3,9.9,3.9l0,0c1.6,5,8.1,6.4,11.6,2.5l6.2-6.9c5.5-6.1,15.1,0.9,11,8l0,0
		c-3,5.2,1.8,11.5,7.6,10l7.4-1.9c5.1-1.3,9.7,3.4,8.3,8.5l-0.7,2.4c-1.3,4.5,2.2,8.9,6.8,8.7l7.9-0.3c7.3-0.3,9.9,9.5,3.4,12.9
		l-12.2,6.5c-4,2.1-4.9,7.6-1.7,10.8l2.9,3c4.1,4.2,1.4,11.2-4.4,11.6l-2.5,0.2c-4,0.3-7,4-6.3,8l0.5,3c1,5.8-5.3,10.1-10.4,7
		l-8.5-5.3C132.1,104.5,128.1,105.2,126,108z"/>
	<text transform="matrix(0.9657 0.2595 -0.2595 0.9657 35.1885 64.8003)" class="st6 st7 st8">sick!</text>
</g>
</svg>
