<?xml version="1.0" encoding="utf-8"?>
<!-- Generator: Adobe Illustrator 28.0.0, SVG Export Plug-In . SVG Version: 6.00 Build 0)  -->
<svg version="1.1" id="Layer_1" xmlns="http://www.w3.org/2000/svg" xmlns:xlink="http://www.w3.org/1999/xlink" x="0px" y="0px"
	 viewBox="0 0 154.4 131" style="enable-background:new 0 0 154.4 131;" xml:space="preserve">
<style type="text/css">
	.st0{fill:#FFE600;}
	.st1{fill:#FF00FF;}
	.st2{font-family:'bb-bookB-ultraexpanded';}
	.st3{font-size:11.5302px;}
	.st4{fill:#29AAFF;}
	.st5{fill:#FF4800;}
	.st6{fill:#FCEE21;}
	.st7{fill:#FFFFFF;}
</style>
<g>
	<path class="st1" d="M123.9,84.7l-1.3,8.5c-0.5,3.5-3.9,5.8-7.3,5.1L104.2,96c-3.1-0.7-6.2,1.2-7.1,4.3l-6.1,21
		c-1.5,5.3-8.7,6-11.3,1.2l-9.3-17.6c-2.1-3.9-7.5-4.4-10.2-0.9l-5.2,6.6c-3.2,4-9.7,2.6-10.8-2.5l-0.2-1.1c-1-4.3-6.1-6.3-9.7-3.6
		l-13.6,10.2c-5.1,3.8-12-1.8-9.2-7.5l7.7-16.3c1.9-4-1-8.6-5.4-8.8l-2.3-0.1c-5.6-0.1-8.1-7.2-3.8-10.8l6.5-5.5
		c2.5-2.1,2.9-5.9,0.8-8.5l-4.3-5.4c-3.1-4-0.4-9.8,4.7-9.9l13-0.3c4.3-0.1,7.2-4.4,5.6-8.4l-0.5-1.2c-2.3-5.7,4.3-10.9,9.3-7.2
		l7.2,5.3c2.9,2.1,6.9,1.3,8.8-1.7l3.3-5.2c2.1-3.3,6.6-3.8,9.4-1.1l0,0c3.4,3.3,9.1,1.6,10.2-3l2-8c1.7-7.1,12.3-5.7,12.1,1.6v0
		c-0.1,5.4,6.3,8.3,10.3,4.7l5.1-4.7c3.5-3.2,9.1-1.4,10.1,3.2l0.5,2.2c0.9,4.1,5.5,6.1,9.1,4l6.1-3.6c5.6-3.3,11.8,3.3,8.2,8.7
		l-7,10.4c-2.3,3.4-0.7,8.1,3.3,9.3l3.6,1.1c5,1.6,5.9,8.3,1.4,11l-1.9,1.2c-3.1,1.9-3.8,6.1-1.5,9l1.7,2.1
		c3.3,4.2,0.1,10.3-5.2,9.9l-9-0.6C127.2,79.3,124.4,81.6,123.9,84.7z"/>
	<text transform="matrix(0.9057 -0.424 0.424 0.9057 33.9272 88.9386)" class="st2 st3">amazing!</text>
</g>
</svg>
