<?xml version="1.0" encoding="utf-8"?>
<!-- Generator: Adobe Illustrator 28.0.0, SVG Export Plug-In . SVG Version: 6.00 Build 0)  -->
<svg version="1.1" id="Layer_1" xmlns="http://www.w3.org/2000/svg" xmlns:xlink="http://www.w3.org/1999/xlink" x="0px" y="0px"
	 viewBox="0 0 254.9 184.4" style="enable-background:new 0 0 254.9 184.4;" xml:space="preserve">
<style type="text/css">
	.st0{fill:#FFE600;}
	.st1{fill:#FF00FF;}
	.st2{fill:#29AAFF;}
	.st3{fill:#FF4800;}
	.st4{font-family:'bb-bookB-condensed';}
	.st5{font-size:49.4194px;}
	.st6{fill:#FCEE21;}
	.st7{fill:#FFFFFF;}
</style>
<g>
	<path class="st2" d="M175.6,152.9l-8.2,10.7c-3.3,4.4-9.6,5-13.8,1.5l-13.5-11.4c-3.8-3.2-9.5-3-13,0.6l-24,24.1
		c-6.1,6.1-16.5,1.7-16.4-6.9l0.3-31c0.1-6.9-7-11.6-13.3-8.9l-12.1,5.1c-7.4,3.1-15.2-3.7-12.9-11.5l0.5-1.7
		c1.9-6.7-3.7-13.1-10.6-12.1l-26.2,3.8c-9.9,1.4-15.1-11.3-7-17.2L28,81.5c5.6-4.1,5.1-12.6-0.9-16l-3.1-1.8
		c-7.6-4.4-5.8-15.8,2.8-17.7l13-2.8c5-1.1,8.3-5.9,7.4-11l-1.8-10.6C44.2,13.9,52.3,8,59.3,11.6l18.1,9.3
		c5.9,3.1,13.1-0.7,13.9-7.4l0.2-1.9c1.1-9.5,14.1-11.7,18.2-3l6,12.6c2.4,5,8.5,7,13.3,4.3l8.4-4.6c5.3-2.9,11.9-0.3,13.8,5.5l0,0
		c2.2,7,11.2,9,16.2,3.5l8.7-9.5c7.7-8.5,21.1,1.3,15.4,11.2l0,0c-4.2,7.3,2.4,16.1,10.6,14.1l10.4-2.6c7.1-1.8,13.5,4.9,11.5,11.9
		l-1,3.4c-1.8,6.2,3,12.4,9.5,12.2l11.1-0.3c10.2-0.3,13.7,13.4,4.7,18.1l-17.3,9c-5.7,3-6.9,10.5-2.5,15.1l4,4.2
		c5.7,5.9,1.9,15.7-6.2,16.2l-3.5,0.2c-5.7,0.4-9.8,5.6-8.8,11.2l0.7,4.1c1.4,8.2-7.5,14.1-14.6,9.7l-11.9-7.5
		C184.1,148,178.6,149,175.6,152.9z"/>
	<text transform="matrix(1 -8.410038e-03 8.410038e-03 1 52.8184 111.1331)" class="st4 st5">beautiful!</text>
</g>
</svg>
